<svg xmlns="http://www.w3.org/2000/svg" width="167.994" height="428.043" viewBox="0 0 167.994 428.043"><defs><style>.a{fill:rgba(157,159,162,0.5);}.a,.b{fill-rule:evenodd;}.b{fill:#9d9fa2;}</style></defs><path class="a" d="M425.151,277.838c6.969,4.267,20.93,11.36,29.089,3.637,4.732,15.472,12.04,47.11-10.906,47.266,6.009,7.644,14.078-7.551,16.361-3.635v40c-.171,7.959-7.347-3.409-10.908-3.635,1.936,5.941,8.407,7.347,10.908,12.726-1.468,13.772,4.049,23.354,0,34.542-6.083,3.006-17.551.626-23.634,3.634,4.419,1.822,16.78,2.431,25.452,0-.831,13.585,4.457,54.068-14.544,49.085,3.211,10.439,12.474-5.944,14.544-1.816-1.734,31.594,4.444,71.1-5.453,94.532-7.452,1.113-22.479-1.133-32.724,1.818,8.085,2.258,22.965,1.116,29.087,1.819,4.537,15.467-5.105,32.449-12.726,41.813-46.947,5.612-72.247-25.832-96.351-49.085,11.859-7.44,20.7-19.32,36.36-9.09,4.24-.607,7.833-1.862,9.09-5.453-5.408,3.7-17.627-1.352-29.089-1.819-7.144.735-7.764,7.992-14.545,9.09-23.656-1.766-35.066-31.146-27.268-52.721,7.94-1.4,14.177,4.912,20,0-1.687-1.232-11.387.84-14.545-3.635-7.488-.823-6.821,6.511-12.726,7.273-8.107-17.792-16.07-39.729-12.726-63.629,11.195,2.742,12.719,15.156,12.726,29.089,2.161-5.711,6.59-.261,14.545-1.821-2.751-2.7-7.979-2.927-12.726-3.634,3.148-20.116-8.56-25.376-18.182-32.722a233.21,233.21,0,0,1,0-27.271c7.433,8.933,15.142,17.583,30.908,18.179,12.48,6.914,9.814,28.971,12.726,45.448,7.444,10.129,19.424,15.725,25.451,27.272-1.5,4.561,3.535,15.653-3.637,14.542,16.641-.842,1.245-28.974-5.453-34.54,4.507-1.585,14.1-3.551,18.179,0-5.376-10.694-14.784-.976-25.452-1.819-3.113-1.734-3.664-6.032-7.272-7.271,4.309-27.335-8.127-37.926-16.361-52.722-5.444,1.2,1.739,3.889,0,7.273-28.808.137-36.533-42.1-21.816-63.627,5.7,11.874,4.712,30.437,21.816,30.9-.458,6.209-9.628,3.7-10.906,9.09,29.351-21.577,46.563-1.25,61.808,20,11.764,16.393,15.908,31.8,45.45,29.087,5.305,4.392,9.92,9.474,18.179,10.91-5.727-3.969-11.449-7.943-16.358-12.726-42.721,8.018-40.664-51.067-74.539-59.993-11.517-3.037-29.748,5.024-38.177-7.273,1.35-8.472-4.583-15.164-5.452-23.634-2.106-20.492,6.805-38.593,16.358-50.9-7.476-18.081,6.627-29.512,16.363-36.36-1.5-3.7-6.366,4.367-9.09,5.453-5.389-5.508.757-14.91,3.637-18.179h14.542c4.435,8.681-1.977,14.037-3.634,23.634-2.655,15.367,6.152,31.648-5.455,38.177,4.7,2.2,9.844-10.705,14.545-14.545a8.565,8.565,0,0,1-5.456,1.819c-4.045-23.075,9.6-33.177,3.637-52.721,13.085-.249,10.179-16.484,23.634-16.363-8.16-6.259-12.864,6.467-16.361,10.908-11.487,2.252-12.044,4.808-23.635,5.455,4.759-17.058,14.9-28.734,27.271-38.177,4.5,1.753-2.506,6.98,0,12.726,4.166-3.108,4.3-10.245,5.453-16.363,7.86-13.234,24.019-12.814,47.266-18.179,20.069-4.632,29.218-13.124,41.814-1.818,6.039,12.69,6.045,29.5,3.636,41.813-4.4-2.265-8.831-4.5-14.542-5.453,1.448,5.823,10.436,4.106,12.726,9.089,3.31,15.758,4.967,35.614,1.816,52.721C451.183,284.794,435.138,280.7,425.151,277.838ZM401.52,199.667c5.006-4.69,6.615-12.778,14.542-14.545,2.668-5.12-7.137,3.621-10.906,3.637-1.577,5.7-4.506,10.039-9.089,12.726-3.237,1-7.55.933-9.093,3.635,9.687-.351,13.6-3.036,18.182,3.636-6.989,7.249-7.579,15.124-14.545,21.816-4.734,4.547-12.458,5.127-16.363,10.906-1.4,4.657-1.813,10.307-5.452,12.727,2.09-4.9-8.72-8.739-3.637-5.455,6.009,9.142,3.255,27.046,14.545,30.906-2.622-8.31-6.172-7.162-7.273-14.543-4.967-33.336,32.888-24.569,30.9-52.721,4.68-5.016,14.739-4.654,20-9.09-8.478-1.207-11.681,2.864-18.179,3.635C404.21,204.249,402.466,202.357,401.52,199.667Zm14.542,49.084c-.209.475-3.385-.467-3.637,0-3.857,7.2-10.494,12.151-12.726,20-3.1,10.924,1.5,22.556-5.453,36.36-11.163-.825-20.8,9.441-18.177,16.361,1.588-13.39,17.394-14.465,30.9-10.908q7.264,7.283,9.09,20c.593,4.377-1.553,20.777,1.819,16.361.516-12.639.145-24.384-3.637-32.724a9.174,9.174,0,0,0,5.453-5.453c-7.721,6.172-12.614-.143-20-3.635,6.468-20.2-.039-53.371,21.819-58.176-5.669-7.466,3.654-18.857-1.821-25.452C417.565,231.568,419.819,240.2,416.062,248.751Zm-1.818,158.162c3.269-8.248,6.437-16.589,9.09-25.452,4.048-5.039,20.5,2.323,21.815-5.453-9.669.027-20.53-1.139-25.452,3.635-3.706-10.836-12.971-16.114-21.814-21.815-11.294-11.445,3.089-23.62-1.816-36.36-2.118,12.126-7.485,25.5-5.456,36.36-14.134-4.652-23.2-14.374-39.993-16.363,1.187-17.06-34.643-29.5-30.908-7.271,1.026-4.429,1.558-9.352,7.273-9.09,15.825-1.885,16.386,11.489,21.816,20,5.858.807,9.85,3.483,16.361,3.636,14.383,15.313,46.975,12.414,54.539,34.542C419.562,391.682,411.012,401.183,414.244,406.913Zm-74.537,12.726c7.008,10.795,21.692,5.77,32.724,12.726,8.017,5.054,5.17,12.4,12.726,18.179,7.3,1.788,15.95,2.228,25.451,1.819,12.935,10.71,12.538,44.41,32.724,41.813-8.859-5.84-19.03-11.822-18.182-21.814.889-10.415,14.266-11.783,20-20-10.343,1.168-13.41,9.617-21.815,12.726.4-9.493-6.333-11.851-10.91-16.363-21.84,3.664-30.28-6.08-36.356-18.179-14.4-4.773-27.948-3.78-34.542-16.361-2.864-5.464.919-12.5-5.455-18.179C336.895,406.108,335.93,413.819,339.707,419.639Zm58.176,92.716c-4.208,19.005,4.232,32.941,0,54.539-1.331,5.415-18.262,4.66-16.361,7.272,4.481.239,8.76.274,10.908-1.819,2.406,13.263,22.716,19.928,34.54,12.726-15.571,1.029-27.855-1.232-30.9-12.726,7.024-9.729,2.51-20.475,7.269-30.9-2.548-6.024-7.71-24.394,0-29.087,9.24,5.563,31.7,9.008,40,0-23.188,10.494-41.128-10.839-67.264-5.453C381.149,510.91,392.349,508.8,397.883,512.355Z" transform="translate(-293.859 -172.233)"/><g transform="translate(0.076 11.281)"><path class="b" d="M375.736,195.554c5.011-4.69,6.619-12.778,14.547-14.545,2.665-5.12-7.139,3.621-10.91,3.637-1.574,5.7-4.5,10.039-9.089,12.726-3.237,1-7.55.933-9.09,3.635,9.687-.351,13.6-3.036,18.179,3.635-6.989,7.249-7.576,15.124-14.542,21.816-4.734,4.547-12.458,5.127-16.363,10.906-1.4,4.657-1.813,10.307-5.453,12.727,2.092-4.9-8.72-8.739-3.635-5.455,6.006,9.142,3.255,27.046,14.542,30.906-2.619-8.31-6.169-7.162-7.269-14.544-4.967-33.336,32.886-24.569,30.9-52.721,4.681-5.016,14.739-4.654,20-9.09-8.481-1.207-11.681,2.864-18.182,3.635C378.428,200.136,376.683,198.244,375.736,195.554Z" transform="translate(-268.604 -179.401)"/><path class="b" d="M385.963,230.8c-.209.475-3.385-.467-3.637,0-3.861,7.2-10.494,12.151-12.726,20-3.105,10.924,1.5,22.556-5.453,36.36-11.166-.825-20.8,9.441-18.181,16.361,1.588-13.39,17.4-14.465,30.906-10.908q7.257,7.283,9.09,20c.59,4.377-1.553,20.777,1.816,16.361.519-12.639.148-24.384-3.634-32.724a9.187,9.187,0,0,0,5.453-5.453c-7.724,6.172-12.614-.143-20-3.635,6.468-20.2-.042-53.371,21.815-58.176-5.664-7.466,3.659-18.857-1.816-25.452C387.466,213.613,389.718,222.242,385.963,230.8Z" transform="translate(-264.285 -165.558)"/><path class="b" d="M404.634,352.5c3.266-8.248,6.437-16.589,9.09-25.452,4.048-5.039,20.5,2.323,21.815-5.453-9.669.027-20.53-1.139-25.452,3.635-3.709-10.836-12.971-16.114-21.814-21.815-11.3-11.445,3.089-23.62-1.819-36.36-2.115,12.126-7.482,25.5-5.453,36.36-14.134-4.652-23.2-14.373-40-16.363,1.19-17.06-34.643-29.5-30.9-7.271,1.026-4.429,1.558-9.352,7.273-9.09,15.821-1.885,16.386,11.489,21.814,20,5.856.807,9.849,3.483,16.363,3.636,14.38,15.313,46.972,12.414,54.539,34.542C409.949,337.271,401.4,346.772,404.634,352.5Z" transform="translate(-284.773 -129.103)"/><path class="b" d="M324.032,338.052c7.008,10.795,21.692,5.77,32.724,12.726,8.014,5.053,5.17,12.4,12.726,18.179,7.3,1.788,15.951,2.229,25.452,1.819,12.932,10.71,12.535,44.41,32.721,41.813-8.856-5.84-19.031-11.822-18.179-21.814.886-10.415,14.265-11.783,20-20-10.346,1.168-13.41,9.618-21.815,12.726.4-9.493-6.333-11.851-10.91-16.363-21.843,3.664-30.28-6.08-36.359-18.179-14.392-4.773-27.944-3.78-34.542-16.361-2.861-5.464.922-12.5-5.453-18.179C321.22,324.521,320.255,332.232,324.032,338.052Z" transform="translate(-278.708 -101.927)"/><path class="b" d="M367.626,390.66c-4.208,19.005,4.232,32.941,0,54.539-1.331,5.415-18.266,4.66-16.363,7.272,4.482.239,8.761.274,10.907-1.819,2.409,13.262,22.716,19.927,34.543,12.726-15.571,1.029-27.855-1.232-30.906-12.726,7.025-9.729,2.513-20.475,7.272-30.9-2.548-6.025-7.71-24.394,0-29.087,9.24,5.563,31.7,9.008,39.994,0-23.19,10.494-41.128-10.839-67.264-5.453C350.891,389.215,362.089,387.1,367.626,390.66Z" transform="translate(-264.126 -61.819)"/><path class="b" d="M319.076,221.873s7.479-1.363,10.091-2.159,10.546-2.934,13.159-3.273c0,0,4.317-6.59,5.112-8.067,0,0,5.795-8.366,11.113-2.934,0,0-5.2-1.042-9.295,4.3,0,0-5.886,12.476-13.725,11.681,0,0,1.589,7.932,1.248,13.84,0,0-.8,7.705-2.726,11.909,0,0-5.34,19.954-2.5,27.227a33.393,33.393,0,0,0,5.225-1.478,33.9,33.9,0,0,0-3.861,4.317c-.8,1.363-5.434,11.341-10.319,9.865a14.081,14.081,0,0,0,6-12.7s-1.931-19.976-.455-26.885c0,0,2.271-7.934,3.522-10.433,0,0,2.954-7.819-.342-11.339l-14.635-.228a17.329,17.329,0,0,0,2.044-2.612Z" transform="translate(-280.834 -165.513)"/><path class="b" d="M300.488,283.224s6.947,15.192,5.5,20.259c0,0,2.606,8.541,15.341,7.672,0,0,24.314-4.633,36.468,7.957,0,0,8.683,8.1,22.14,32.559,0,0,13.316,25.332,38.207,19.4l16.064,13.025s-10.134-2.021-16.933-10.129c0,0-23.739,7.375-41.1-21.566,0,0-20.837-37.916-43.413-37.047,0,0-10.562-.14-23.152,9.554,0,0-.9-2.871,2.477-4.306,0,0,7.479-1.8,8.146-5.223,0,0-12.683.393-16.717-14.262,0,0-4.229-14.951-5.016-16.328,0,0,1.771-2.164,1.868-3.541Z" transform="translate(-291.272 -120.964)"/><path class="b" d="M296.184,311.455s5.866,22.523,26.486,21.871c0,0,1.22-1.871-1.3-4.477,0,0-2.413-1.789,1.712-2.85,0,0,4.122,7.136,6.157,10.392,0,0,9.578,13.436,10.474,23.258,0,0,1.109,14.514-.326,19.074,0,0,2.606,1.385,3.5,3.094s3.044,4.8,5.946,4.477a47.545,47.545,0,0,0,8.683-2.035s11.777-5,14.3,3.47c0,0-9.934-3.744-17.8.408,0,0,9.74,9.556,12.51,22.85,0,0,2.849,11.859-6.808,11.533a3.086,3.086,0,0,0,3.255-3.584s-1.6-8.927-.242-10.8A93.425,93.425,0,0,0,352.46,395.71s-13.129-11.045-15.165-15.035c0,0-1.221-14.841-1.873-20.294s-2.167-20.947-10.718-24.937c0,0-17.556,1.272-30.8-18.047a30.327,30.327,0,0,0,.732-10.8Z" transform="translate(-293.907 -106.414)"/><path class="b" d="M323.512,410.256a12.026,12.026,0,0,0,6.143.586c3.368-.586,6.141-1.157,8.338-4.529,0,0,3.518-4.69,7.329-4.251a25.27,25.27,0,0,1,8.486,1.174s16.1,4.249,20.93.439c0,0-2.638,5.115-9.953,5.995,0,0-10.962-6.714-17.411-2.77,0,0-7.315,3.8-11.127,7.314,0,0-5.274,3.664-7.62,3.958,0,0-4.383-6.612-10.1-9.969Z" transform="translate(-279.781 -51.655)"/><path class="b" d="M296.126,331.891c.559.42,20.3,11.165,16.1,31.323,0,0,9.389.28,11.889,3.785a14.456,14.456,0,0,1-7.288-.14s-5.022-1.262-7.4,2.1c0,0,1.4-25.743-11.61-28.826a8.32,8.32,0,0,0-.842-5.186c-1.4-2.921-2.1-4.042-2.1-4.042Z" transform="translate(-293.359 -92.466)"/></g></svg>