<svg xmlns="http://www.w3.org/2000/svg" width="167.991" height="428.043" viewBox="0 0 167.991 428.043"><defs><style>.a{fill:#ed1c25;}.a,.b{fill-rule:evenodd;}.b{fill:rgba(237,28,37,0.4);}</style></defs><g transform="translate(-169.081)"><g transform="translate(185.782 11.281)"><path class="a" d="M447.582,195.554c-5.008-4.69-6.615-12.778-14.542-14.545-2.666-5.12,7.137,3.621,10.908,3.637,1.574,5.7,4.5,10.039,9.09,12.726,3.236,1,7.549.933,9.089,3.635-9.685-.351-13.6-3.036-18.179,3.635,6.988,7.249,7.578,15.124,14.544,21.816,4.732,4.547,12.458,5.127,16.361,10.906,1.405,4.657,1.813,10.307,5.453,12.727-2.09-4.9,8.72-8.739,3.635-5.455-6.006,9.142-3.255,27.046-14.542,30.906,2.619-8.31,6.169-7.162,7.269-14.544,4.968-33.336-32.886-24.569-30.9-52.721-4.682-5.016-14.74-4.654-20-9.09,8.48-1.207,11.679,2.864,18.181,3.635C444.892,200.136,446.637,198.244,447.582,195.554Z" transform="translate(-403.951 -179.401)"/><path class="a" d="M432.376,230.8c.208.475,3.384-.467,3.635,0,3.861,7.2,10.494,12.151,12.726,20,3.1,10.924-1.5,22.556,5.453,36.36,11.168-.825,20.8,9.441,18.179,16.361-1.586-13.39-17.4-14.465-30.9-10.908q-7.257,7.283-9.089,20c-.59,4.377,1.552,20.777-1.818,16.361-.519-12.639-.146-24.384,3.634-32.724a9.192,9.192,0,0,1-5.453-5.453c7.724,6.172,12.616-.143,20-3.635-6.467-20.2.043-53.371-21.814-58.176,5.664-7.466-3.657-18.857,1.816-25.452C430.873,213.613,428.62,222.242,432.376,230.8Z" transform="translate(-403.288 -165.558)"/><path class="a" d="M442.81,352.5c-3.264-8.248-6.437-16.589-9.089-25.452-4.049-5.039-20.5,2.323-21.816-5.453,9.671.027,20.53-1.139,25.452,3.635,3.711-10.836,12.971-16.114,21.815-21.815,11.3-11.445-3.088-23.62,1.821-36.36,2.114,12.126,7.482,25.5,5.453,36.36,14.133-4.652,23.2-14.373,40-16.363-1.19-17.06,34.641-29.5,30.9-7.271-1.026-4.429-1.558-9.352-7.273-9.09-15.821-1.885-16.386,11.489-21.814,20-5.856.807-9.849,3.483-16.363,3.636-14.378,15.313-46.97,12.414-54.539,34.542C437.5,337.271,446.044,346.772,442.81,352.5Z" transform="translate(-411.905 -129.103)"/><path class="a" d="M517.347,338.052c-7.008,10.795-21.692,5.77-32.724,12.726-8.012,5.053-5.17,12.4-12.726,18.179-7.3,1.788-15.949,2.229-25.452,1.819-12.93,10.71-12.534,44.41-32.721,41.813,8.856-5.84,19.03-11.822,18.179-21.814-.884-10.415-14.265-11.783-20-20,10.346,1.168,13.412,9.618,21.816,12.726-.4-9.493,6.331-11.851,10.908-16.363,21.843,3.664,30.28-6.08,36.358-18.179,14.394-4.773,27.948-3.78,34.543-16.361,2.861-5.464-.922-12.5,5.453-18.179C520.159,324.521,521.125,332.232,517.347,338.052Z" transform="translate(-411.905 -101.927)"/><path class="a" d="M458.508,390.66c4.208,19.005-4.232,32.941,0,54.539,1.331,5.415,18.266,4.66,16.363,7.272-4.482.239-8.76.274-10.906-1.819-2.409,13.262-22.715,19.927-34.543,12.726,15.573,1.029,27.855-1.232,30.908-12.726-7.027-9.729-2.515-20.475-7.273-30.9,2.548-6.025,7.709-24.394,0-29.087-9.241,5.563-31.7,9.008-40,0,23.19,10.494,41.128-10.839,67.263-5.453C475.242,389.215,464.044,387.1,458.508,390.66Z" transform="translate(-411.242 -61.819)"/><path class="a" d="M497.8,221.873s-7.479-1.363-10.091-2.159-10.546-2.934-13.159-3.273c0,0-4.315-6.59-5.112-8.067,0,0-5.795-8.366-11.113-2.934,0,0,5.2-1.042,9.295,4.3,0,0,5.888,12.476,13.725,11.681,0,0-1.59,7.932-1.248,13.84,0,0,.8,7.705,2.727,11.909,0,0,5.338,19.954,2.5,27.227a33.388,33.388,0,0,1-5.227-1.478,33.9,33.9,0,0,1,3.861,4.317c.8,1.363,5.434,11.341,10.319,9.865a14.081,14.081,0,0,1-6-12.7s1.931-19.976.456-26.885c0,0-2.273-7.934-3.524-10.433,0,0-2.954-7.819.342-11.339l14.635-.228a17.328,17.328,0,0,1-2.044-2.612Z" transform="translate(-385.271 -165.513)"/><path class="a" d="M550.6,283.224s-6.947,15.192-5.5,20.259c0,0-2.606,8.541-15.341,7.672,0,0-24.314-4.633-36.467,7.957,0,0-8.684,8.1-22.142,32.559,0,0-13.316,25.332-38.207,19.4L416.88,384.092s10.134-2.021,16.934-10.129c0,0,23.739,7.375,41.1-21.566,0,0,20.837-37.916,43.412-37.047,0,0,10.565-.14,23.155,9.554,0,0,.9-2.871-2.479-4.306,0,0-7.477-1.8-8.145-5.223,0,0,12.682.393,16.715-14.262,0,0,4.229-14.951,5.016-16.328,0,0-1.77-2.164-1.868-3.541Z" transform="translate(-409.05 -120.964)"/><path class="a" d="M533.828,311.455s-5.866,22.523-26.484,21.871c0,0-1.221-1.871,1.3-4.477,0,0,2.409-1.789-1.712-2.85,0,0-4.122,7.136-6.157,10.392,0,0-9.578,13.436-10.472,23.258,0,0-1.111,14.514.326,19.074,0,0-2.608,1.385-3.5,3.094s-3.044,4.8-5.944,4.477a47.552,47.552,0,0,1-8.684-2.035s-11.775-5-14.3,3.47c0,0,9.935-3.744,17.8.408,0,0-9.739,9.556-12.509,22.85,0,0-2.849,11.859,6.81,11.533a3.087,3.087,0,0,1-3.256-3.584s1.6-8.927.242-10.8a93.562,93.562,0,0,1,10.261-12.427s13.129-11.045,15.167-15.035c0,0,1.22-14.841,1.871-20.294s2.167-20.947,10.719-24.937c0,0,17.554,1.272,30.8-18.047a30.367,30.367,0,0,1-.732-10.8Z" transform="translate(-385.34 -106.414)"/><path class="a" d="M498.592,410.256a12.021,12.021,0,0,1-6.141.586c-3.37-.586-6.143-1.157-8.34-4.529,0,0-3.517-4.69-7.328-4.251a25.277,25.277,0,0,0-8.487,1.174s-16.1,4.249-20.93.439c0,0,2.638,5.115,9.953,5.995,0,0,10.962-6.714,17.411-2.77,0,0,7.315,3.8,11.127,7.314,0,0,5.275,3.664,7.62,3.958,0,0,4.383-6.612,10.1-9.969Z" transform="translate(-391.557 -51.655)"/><path class="a" d="M516.147,331.891c-.559.42-20.3,11.165-16.094,31.323,0,0-9.391.28-11.89,3.785a14.456,14.456,0,0,0,7.288-.14s5.022-1.262,7.4,2.1c0,0-1.4-25.743,11.61-28.826a8.32,8.32,0,0,1,.842-5.186c1.4-2.921,2.1-4.042,2.1-4.042Z" transform="translate(-368.148 -92.466)"/></g><path class="b" d="M437.992,277.838c-6.967,4.267-20.93,11.36-29.087,3.637-4.734,15.472-12.041,47.11,10.908,47.266-6.009,7.644-14.081-7.551-16.361-3.635v40c.172,7.959,7.347-3.409,10.906-3.635-1.937,5.941-8.407,7.347-10.906,12.726,1.467,13.772-4.051,23.354,0,34.542,6.08,3.006,17.551.626,23.632,3.634-4.418,1.822-16.78,2.431-25.452,0,.829,13.585-4.457,54.068,14.545,49.085-3.212,10.439-12.474-5.944-14.545-1.816,1.736,31.594-4.444,71.1,5.456,94.532,7.447,1.113,22.475-1.133,32.721,1.818-8.085,2.258-22.965,1.116-29.089,1.819-4.534,15.467,5.105,32.449,12.726,41.813,46.947,5.612,72.247-25.832,96.353-49.085-11.855-7.44-20.7-19.32-36.358-9.09-4.241-.607-7.834-1.862-9.092-5.453,5.409,3.7,17.628-1.352,29.087-1.819,7.143.735,7.765,7.992,14.545,9.09,23.657-1.766,35.067-31.146,27.269-52.721-7.94-1.4-14.177,4.912-20,0,1.684-1.232,11.382.84,14.542-3.635,7.488-.823,6.821,6.511,12.726,7.273,8.105-17.792,16.073-39.729,12.726-63.629-11.2,2.742-12.719,15.156-12.726,29.089-2.161-5.711-6.591-.261-14.543-1.821,2.753-2.7,7.977-2.927,12.726-3.634-3.151-20.116,8.558-25.376,18.179-32.722a233.223,233.223,0,0,0,0-27.271c-7.43,8.933-15.141,17.583-30.9,18.179-12.479,6.914-9.814,28.971-12.724,45.448-7.449,10.129-19.427,15.725-25.455,27.272,1.5,4.561-3.532,15.653,3.635,14.542-16.641-.842-1.245-28.974,5.456-34.54-4.506-1.585-14.1-3.551-18.182,0,5.376-10.694,14.786-.976,25.452-1.819,3.115-1.734,3.664-6.032,7.273-7.271-4.309-27.335,8.13-37.926,16.363-52.722,5.444,1.2-1.74,3.889,0,7.273,28.807.137,36.533-42.1,21.815-63.627-5.7,11.874-4.709,30.437-21.815,30.9.458,6.209,9.63,3.7,10.908,9.09-29.355-21.577-46.564-1.25-61.811,20-11.764,16.393-15.906,31.8-45.45,29.087-5.305,4.392-9.92,9.474-18.179,10.91,5.727-3.969,11.451-7.943,16.363-12.726,42.716,8.018,40.661-51.067,74.534-59.993,11.52-3.037,29.75,5.024,38.177-7.273-1.349-8.472,4.586-15.164,5.456-23.634,2.106-20.492-6.808-38.593-16.363-50.9,7.476-18.081-6.627-29.512-16.361-36.36,1.5-3.7,6.369,4.367,9.089,5.453,5.389-5.508-.755-14.91-3.635-18.179H517.982c-4.435,8.681,1.977,14.037,3.637,23.634,2.654,15.367-6.154,31.648,5.453,38.177-4.7,2.2-9.846-10.705-14.542-14.545a8.544,8.544,0,0,0,5.452,1.819c4.046-23.075-9.6-33.177-3.636-52.721-13.086-.249-10.178-16.484-23.635-16.363,8.162-6.259,12.864,6.467,16.363,10.908,11.487,2.252,12.043,4.808,23.634,5.455-4.758-17.058-14.9-28.734-27.271-38.177-4.5,1.753,2.505,6.98,0,12.726-4.164-3.108-4.3-10.245-5.453-16.363-7.856-13.234-24.018-12.814-47.266-18.179-20.069-4.632-29.216-13.124-41.813-1.818-6.04,12.69-6.047,29.5-3.637,41.813,4.4-2.265,8.832-4.5,14.545-5.453-1.449,5.823-10.434,4.106-12.724,9.089-3.314,15.758-4.968,35.614-1.821,52.721C411.963,284.794,428.007,280.7,437.992,277.838Zm23.632-78.171c-5.008-4.69-6.615-12.778-14.542-14.545-2.666-5.12,7.137,3.621,10.908,3.637,1.574,5.7,4.5,10.039,9.09,12.726,3.236,1,7.549.933,9.089,3.635-9.685-.351-13.6-3.036-18.179,3.636,6.988,7.249,7.578,15.124,14.544,21.816,4.732,4.547,12.458,5.127,16.361,10.906,1.405,4.657,1.813,10.307,5.453,12.727-2.09-4.9,8.72-8.739,3.635-5.455-6.006,9.142-3.255,27.046-14.542,30.906,2.619-8.31,6.169-7.162,7.269-14.543,4.968-33.336-32.886-24.569-30.9-52.721-4.682-5.016-14.74-4.654-20-9.09,8.48-1.207,11.679,2.864,18.181,3.635C458.935,204.249,460.68,202.357,461.625,199.667Zm-14.542,49.084c.208.475,3.384-.467,3.635,0,3.861,7.2,10.494,12.151,12.726,20,3.1,10.924-1.5,22.556,5.453,36.36,11.168-.825,20.8,9.441,18.179,16.361-1.586-13.39-17.4-14.465-30.9-10.908q-7.257,7.283-9.089,20c-.59,4.377,1.552,20.777-1.818,16.361-.519-12.639-.146-24.384,3.634-32.724a9.191,9.191,0,0,1-5.453-5.453c7.724,6.172,12.616-.143,20-3.635-6.467-20.2.043-53.371-21.814-58.176,5.664-7.466-3.657-18.857,1.816-25.452C445.58,231.568,443.326,240.2,447.083,248.751ZM448.9,406.913c-3.264-8.248-6.437-16.589-9.089-25.452-4.049-5.039-20.5,2.323-21.816-5.453,9.671.027,20.53-1.139,25.452,3.635,3.711-10.836,12.971-16.114,21.814-21.815,11.3-11.445-3.088-23.62,1.821-36.36,2.114,12.126,7.482,25.5,5.453,36.36,14.133-4.652,23.2-14.374,40-16.363-1.19-17.06,34.641-29.5,30.9-7.271-1.026-4.429-1.558-9.352-7.273-9.09-15.821-1.885-16.386,11.489-21.815,20-5.856.807-9.849,3.483-16.363,3.636-14.378,15.313-46.97,12.414-54.539,34.542C443.584,391.682,452.133,401.183,448.9,406.913Zm74.537,12.726c-7.008,10.795-21.692,5.77-32.724,12.726-8.012,5.054-5.17,12.4-12.726,18.179-7.3,1.788-15.949,2.228-25.452,1.819-12.93,10.71-12.534,44.41-32.721,41.813,8.856-5.84,19.03-11.822,18.179-21.814-.884-10.415-14.265-11.783-20-20,10.346,1.168,13.412,9.617,21.816,12.726-.4-9.493,6.331-11.851,10.908-16.363,21.843,3.664,30.28-6.08,36.358-18.179,14.394-4.773,27.948-3.78,34.543-16.361,2.861-5.464-.922-12.5,5.453-18.179C526.248,406.108,527.214,413.819,523.436,419.639ZM465.26,512.355c4.208,19.005-4.232,32.941,0,54.539,1.331,5.415,18.266,4.66,16.363,7.272-4.482.239-8.76.274-10.906-1.819-2.409,13.263-22.715,19.928-34.543,12.726,15.573,1.029,27.855-1.232,30.908-12.726-7.027-9.729-2.515-20.475-7.273-30.9,2.548-6.024,7.708-24.394,0-29.087-9.241,5.563-31.7,9.008-40,0,23.19,10.494,41.128-10.839,67.263-5.453C481.994,510.91,470.8,508.8,465.26,512.355Z" transform="translate(-232.212 -172.233)"/></g></svg>