<svg xmlns="http://www.w3.org/2000/svg" width="273.152" height="346.872" viewBox="0 0 273.152 346.872">
  <g id="Group_8" data-name="Group 8" transform="translate(0)">
    <g id="Group_4" data-name="Group 4" transform="translate(150.552 9.142)">
      <path id="Path_23" data-name="Path 23" d="M443.445,192.491c-4.058-3.8-5.36-10.355-11.784-11.787-2.16-4.149,5.784,2.935,8.84,2.947,1.275,4.616,3.65,8.136,7.366,10.313,2.622.814,6.118.756,7.365,2.946-7.849-.284-11.018-2.46-14.732,2.946,5.663,5.874,6.141,12.256,11.786,17.679,3.835,3.685,10.1,4.155,13.259,8.838,1.139,3.774,1.469,8.352,4.419,10.314-1.694-3.968,7.067-7.082,2.946-4.42-4.867,7.409-2.638,21.917-11.784,25.046,2.122-6.734,5-5.8,5.891-11.786,4.026-27.015-26.65-19.91-25.043-42.723-3.794-4.065-11.945-3.771-16.206-7.366,6.872-.978,9.464,2.321,14.733,2.946C441.265,196.2,442.68,194.671,443.445,192.491Z" transform="translate(-408.088 -179.401)" fill="#ed1c25" fill-rule="evenodd"/>
      <path id="Path_24" data-name="Path 24" d="M431.342,225.624c.168.385,2.742-.379,2.946,0,3.128,5.836,8.5,9.847,10.313,16.206,2.514,8.852-1.215,18.278,4.419,29.465,9.05-.668,16.859,7.651,14.732,13.259-1.286-10.851-14.1-11.722-25.044-8.84q-5.881,5.9-7.365,16.206c-.478,3.547,1.257,16.837-1.473,13.259-.421-10.242-.119-19.76,2.945-26.518a7.449,7.449,0,0,1-4.419-4.419c6.259,5,10.223-.116,16.206-2.946-5.24-16.368.034-43.25-17.678-47.144,4.59-6.05-2.964-15.281,1.472-20.625C430.124,211.7,428.3,218.693,431.342,225.624Z" transform="translate(-407.77 -172.758)" fill="#ed1c25" fill-rule="evenodd"/>
      <path id="Path_25" data-name="Path 25" d="M436.949,336.3c-2.645-6.684-5.216-13.444-7.365-20.625-3.281-4.084-16.613,1.882-17.679-4.419,7.837.022,16.637-.923,20.625,2.946,3.007-8.781,10.511-13.058,17.678-17.678,9.155-9.274-2.5-19.141,1.476-29.465,1.713,9.827,6.063,20.666,4.419,29.465,11.453-3.77,18.8-11.648,32.412-13.26-.964-13.825,28.072-23.907,25.043-5.892-.832-3.589-1.263-7.578-5.893-7.366-12.821-1.528-13.279,9.31-17.678,16.206-4.746.654-7.981,2.822-13.26,2.946-11.652,12.409-38.063,10.06-44.2,27.992C432.642,323.957,439.57,331.656,436.949,336.3Z" transform="translate(-411.905 -155.264)" fill="#ed1c25" fill-rule="evenodd"/>
      <path id="Path_26" data-name="Path 26" d="M497.351,333.571c-5.679,8.748-17.578,4.675-26.519,10.313-6.493,4.1-4.189,10.045-10.312,14.732-5.915,1.449-12.924,1.806-20.625,1.474-10.478,8.679-10.157,35.988-26.516,33.884,7.176-4.733,15.422-9.581,14.732-17.678-.717-8.44-11.56-9.549-16.206-16.206,8.384.946,10.869,7.794,17.679,10.313-.324-7.693,5.131-9.6,8.839-13.26,17.7,2.969,24.538-4.927,29.463-14.732,11.664-3.868,22.648-3.063,27.993-13.259,2.319-4.428-.747-10.13,4.419-14.732C499.631,322.605,500.414,328.854,497.351,333.571Z" transform="translate(-411.905 -142.223)" fill="#ed1c25" fill-rule="evenodd"/>
      <path id="Path_27" data-name="Path 27" d="M449.89,389.457c3.41,15.4-3.429,26.695,0,44.2,1.079,4.388,14.8,3.776,13.26,5.893-3.632.194-7.1.222-8.838-1.474-1.953,10.747-18.407,16.149-27.993,10.313,12.62.834,22.573-1,25.047-10.313-5.694-7.884-2.038-16.592-5.893-25.044,2.065-4.882,6.247-19.768,0-23.571-7.489,4.508-25.687,7.3-32.411,0,18.792,8.5,33.329-8.783,54.508-4.419C463.45,388.286,454.376,386.575,449.89,389.457Z" transform="translate(-411.587 -122.975)" fill="#ed1c25" fill-rule="evenodd"/>
      <path id="Path_28" data-name="Path 28" d="M490.309,218.409s-6.06-1.1-8.178-1.75-8.546-2.377-10.663-2.653c0,0-3.5-5.34-4.142-6.537,0,0-4.7-6.78-9.005-2.377,0,0,4.218-.844,7.532,3.483,0,0,4.771,10.11,11.122,9.466a54.082,54.082,0,0,0-1.011,11.216s.645,6.244,2.21,9.651c0,0,4.326,16.17,2.025,22.064a27.055,27.055,0,0,1-4.235-1.2,27.465,27.465,0,0,1,3.128,3.5c.645,1.1,4.4,9.19,8.362,7.994a11.41,11.41,0,0,1-4.863-10.295s1.565-16.188.37-21.787a81.985,81.985,0,0,0-2.855-8.454s-2.394-6.336.277-9.189l11.86-.185a14.04,14.04,0,0,1-1.657-2.117Z" transform="translate(-399.124 -172.736)" fill="#ed1c25" fill-rule="evenodd"/>
      <path id="Path_29" data-name="Path 29" d="M525.243,282.848s-5.629,12.311-4.457,16.418c0,0-2.112,6.921-12.432,6.217,0,0-19.7-3.755-29.551,6.448,0,0-7.037,6.567-17.943,26.385,0,0-10.791,20.528-30.962,15.718L416.88,364.589A26.65,26.65,0,0,0,430.6,356.38s19.237,5.976,33.306-17.476c0,0,16.886-30.726,35.179-30.022,0,0,8.562-.114,18.765,7.743,0,0,.729-2.326-2.009-3.489,0,0-6.059-1.46-6.6-4.233,0,0,10.277.319,13.546-11.557,0,0,3.427-12.116,4.065-13.232a7.443,7.443,0,0,1-1.514-2.87Z" transform="translate(-410.535 -151.358)" fill="#ed1c25" fill-rule="evenodd"/>
      <path id="Path_30" data-name="Path 30" d="M519.487,310.534s-4.753,18.252-21.462,17.724c0,0-.99-1.516,1.056-3.628,0,0,1.953-1.45-1.388-2.31,0,0-3.34,5.783-4.989,8.421,0,0-7.762,10.888-8.486,18.847,0,0-.9,11.761.264,15.457a7.969,7.969,0,0,0-2.838,2.507c-.727,1.385-2.467,3.892-4.817,3.628a38.543,38.543,0,0,1-7.037-1.649s-9.542-4.049-11.588,2.812c0,0,8.051-3.034,14.426.33,0,0-7.892,7.744-10.137,18.517,0,0-2.308,9.61,5.518,9.346a2.5,2.5,0,0,1-2.639-2.9s1.3-7.234.2-8.751a75.815,75.815,0,0,1,8.315-10.07s10.639-8.951,12.291-12.184c0,0,.988-12.027,1.516-16.446s1.756-16.975,8.686-20.208c0,0,14.225,1.031,24.956-14.625a24.608,24.608,0,0,1-.593-8.75Z" transform="translate(-399.157 -144.376)" fill="#ed1c25" fill-rule="evenodd"/>
      <path id="Path_31" data-name="Path 31" d="M488.878,408.7a9.742,9.742,0,0,1-4.976.475c-2.731-.475-4.978-.938-6.758-3.671,0,0-2.85-3.8-5.938-3.445a20.484,20.484,0,0,0-6.878.951s-13.043,3.444-16.961.356a10.461,10.461,0,0,0,8.065,4.858s8.883-5.441,14.109-2.245c0,0,5.928,3.076,9.017,5.927,0,0,4.275,2.969,6.175,3.208,0,0,3.552-5.358,8.183-8.078Z" transform="translate(-402.141 -118.098)" fill="#ed1c25" fill-rule="evenodd"/>
      <path id="Path_32" data-name="Path 32" d="M510.84,331.7c-.453.341-16.45,9.047-13.042,25.383,0,0-7.61.227-9.635,3.067a11.716,11.716,0,0,0,5.906-.113s4.07-1.023,6,1.7c0,0-1.136-20.861,9.408-23.359a6.742,6.742,0,0,1,.682-4.2c1.136-2.367,1.7-3.275,1.7-3.275Z" transform="translate(-390.907 -137.682)" fill="#ed1c25" fill-rule="evenodd"/>
    </g>
    <g id="Group_7" data-name="Group 7" transform="translate(0)">
      <path id="Path_33" data-name="Path 33" d="M431.033,257.812c-5.646,3.458-16.961,9.206-23.571,2.947-3.836,12.538-9.758,38.177,8.839,38.3-4.869,6.194-11.411-6.119-13.259-2.946v32.411c.139,6.45,5.953-2.762,8.838-2.946-1.57,4.814-6.813,5.953-8.838,10.313,1.189,11.161-3.283,18.925,0,27.992,4.927,2.436,14.223.508,19.151,2.945-3.58,1.477-13.6,1.97-20.625,0,.672,11.009-3.612,43.815,11.787,39.777-2.6,8.46-10.108-4.817-11.787-1.472,1.407,25.6-3.6,57.619,4.422,76.606,6.035.9,18.213-.918,26.516,1.473-6.551,1.83-18.61.9-23.572,1.474-3.674,12.534,4.137,26.3,10.313,33.884,38.044,4.548,58.547-20.934,78.081-39.777-9.607-6.029-16.775-15.656-29.463-7.367-3.437-.492-6.349-1.509-7.368-4.419,4.383,3,14.285-1.1,23.571-1.474,5.789.6,6.293,6.476,11.787,7.366,19.171-1.431,28.418-25.239,22.1-42.723-6.434-1.135-11.488,3.98-16.2,0,1.365-1,9.223.681,11.784-2.946,6.068-.667,5.527,5.276,10.313,5.893,6.568-14.418,13.025-32.2,10.313-51.563-9.073,2.222-10.307,12.282-10.313,23.572-1.751-4.628-5.341-.212-11.785-1.476,2.23-2.189,6.465-2.372,10.312-2.945-2.553-16.3,6.935-20.564,14.732-26.517a189.006,189.006,0,0,0,0-22.1c-6.021,7.239-12.27,14.248-25.044,14.732-10.112,5.6-7.953,23.477-10.311,36.83-6.036,8.208-15.743,12.743-20.628,22.1,1.215,3.7-2.862,12.685,2.946,11.784-13.486-.682-1.009-23.479,4.422-27.99-3.651-1.284-11.423-2.877-14.734,0,4.357-8.666,11.982-.791,20.625-1.474,2.524-1.405,2.969-4.888,5.893-5.892-3.492-22.152,6.589-30.734,13.26-42.725,4.412.969-1.41,3.151,0,5.894,23.344.111,29.6-34.12,17.678-51.562-4.618,9.623-3.816,24.665-17.678,25.044.371,5.031,7.8,3,8.84,7.366-23.788-17.485-37.734-1.013-50.09,16.2-9.533,13.284-12.89,25.772-36.831,23.571-4.3,3.56-8.039,7.678-14.732,8.841a101.746,101.746,0,0,0,13.26-10.313c34.616,6.5,32.95-41.383,60.4-48.617,9.336-2.461,24.108,4.071,30.938-5.893-1.093-6.865,3.716-12.288,4.422-19.152,1.706-16.606-5.517-31.274-13.26-41.249,6.058-14.653-5.37-23.916-13.259-29.465,1.218-2.995,5.161,3.539,7.365,4.419,4.367-4.464-.612-12.083-2.946-14.732H495.854c-3.594,7.035,1.6,11.375,2.947,19.152,2.15,12.453-4.987,25.646,4.419,30.938-3.809,1.783-7.979-8.675-11.784-11.787a6.924,6.924,0,0,0,4.418,1.474c3.279-18.7-7.778-26.886-2.946-42.723-10.6-.2-8.248-13.358-19.153-13.26,6.614-5.072,10.425,5.24,13.26,8.84,9.309,1.825,9.759,3.9,19.152,4.42-3.855-13.824-12.073-23.286-22.1-30.938-3.646,1.421,2.03,5.656,0,10.313-3.375-2.519-3.482-8.3-4.419-13.26-6.367-10.724-19.463-10.384-38.3-14.732-16.263-3.753-23.676-10.635-33.884-1.473-4.895,10.283-4.9,23.9-2.947,33.884,3.567-1.835,7.157-3.648,11.787-4.419-1.174,4.719-8.456,3.327-10.311,7.365-2.686,12.77-4.026,28.86-1.476,42.723C409.94,263.449,422.941,260.132,431.033,257.812Zm19.151-63.347c-4.058-3.8-5.36-10.355-11.784-11.787-2.161-4.149,5.784,2.935,8.839,2.947,1.275,4.616,3.65,8.136,7.366,10.313,2.622.814,6.118.756,7.365,2.946-7.849-.284-11.018-2.46-14.732,2.946,5.663,5.874,6.141,12.256,11.786,17.679,3.835,3.684,10.1,4.155,13.259,8.838,1.139,3.774,1.469,8.352,4.419,10.314-1.694-3.968,7.067-7.082,2.946-4.42-4.867,7.409-2.638,21.917-11.784,25.045,2.122-6.734,5-5.8,5.891-11.786,4.026-27.015-26.65-19.91-25.043-42.723-3.794-4.065-11.945-3.771-16.206-7.366,6.872-.978,9.464,2.321,14.733,2.946C448,198.178,449.419,196.645,450.184,194.465ZM438.4,234.241c.168.385,2.742-.379,2.946,0,3.128,5.836,8.5,9.847,10.313,16.206,2.514,8.852-1.215,18.279,4.419,29.465,9.05-.668,16.859,7.651,14.732,13.259-1.286-10.851-14.1-11.722-25.044-8.839q-5.881,5.9-7.365,16.206c-.478,3.547,1.257,16.837-1.473,13.259-.421-10.242-.119-19.76,2.945-26.518a7.449,7.449,0,0,1-4.419-4.419c6.259,5,10.223-.116,16.206-2.946-5.24-16.368.034-43.25-17.678-47.144,4.59-6.05-2.964-15.281,1.472-20.625C437.182,220.316,435.355,227.309,438.4,234.241Zm1.472,128.17c-2.645-6.684-5.216-13.444-7.365-20.625-3.281-4.084-16.613,1.882-17.679-4.419,7.837.022,16.637-.923,20.625,2.946,3.007-8.781,10.511-13.058,17.678-17.678,9.155-9.274-2.5-19.141,1.476-29.465,1.713,9.827,6.063,20.666,4.419,29.465,11.453-3.77,18.8-11.648,32.412-13.26-.964-13.825,28.072-23.907,25.043-5.892-.831-3.589-1.262-7.578-5.893-7.366-12.821-1.528-13.279,9.31-17.678,16.206-4.745.654-7.981,2.822-13.26,2.946-11.652,12.409-38.063,10.06-44.2,27.992C435.564,350.068,442.492,357.767,439.871,362.411Zm60.4,10.313c-5.679,8.748-17.578,4.675-26.519,10.313-6.493,4.1-4.19,10.045-10.313,14.732-5.915,1.449-12.924,1.806-20.625,1.474-10.478,8.679-10.157,35.988-26.516,33.884,7.177-4.733,15.422-9.581,14.732-17.678-.717-8.44-11.56-9.549-16.206-16.206,8.384.946,10.869,7.794,17.679,10.313-.324-7.693,5.131-9.6,8.839-13.26,17.7,2.969,24.538-4.927,29.463-14.732,11.664-3.868,22.648-3.063,27.993-13.259,2.319-4.428-.747-10.13,4.419-14.732C502.553,361.758,503.336,368.007,500.273,372.723ZM453.13,447.857c3.41,15.4-3.429,26.695,0,44.2,1.079,4.388,14.8,3.776,13.26,5.893-3.632.194-7.1.222-8.838-1.474-1.952,10.747-18.407,16.149-27.993,10.313,12.62.834,22.573-1,25.047-10.312-5.694-7.884-2.038-16.592-5.893-25.044,2.065-4.882,6.247-19.768,0-23.571-7.489,4.508-25.687,7.3-32.411,0,18.792,8.5,33.329-8.783,54.508-4.419C466.691,446.686,457.617,444.975,453.13,447.857Z" transform="translate(-264.275 -172.233)" fill="rgba(237,28,37,0.4)" fill-rule="evenodd"/>
      <g id="Group_6" data-name="Group 6">
        <path id="Path_34" data-name="Path 34" d="M400.253,257.812c5.647,3.458,16.961,9.206,23.572,2.947,3.835,12.538,9.757,38.177-8.838,38.3,4.869,6.194,11.408-6.119,13.259-2.946v32.411c-.139,6.45-5.953-2.762-8.84-2.946,1.569,4.814,6.813,5.953,8.84,10.313-1.19,11.161,3.281,18.925,0,27.992-4.929,2.436-14.223.508-19.152,2.945,3.581,1.477,13.6,1.97,20.625,0-.673,11.009,3.612,43.815-11.786,39.777,2.6,8.46,10.108-4.817,11.786-1.472-1.405,25.6,3.6,57.619-4.419,76.606-6.039.9-18.216-.918-26.519,1.473,6.552,1.83,18.61.9,23.571,1.474,3.677,12.534-4.137,26.3-10.313,33.884-38.044,4.548-58.547-20.934-78.08-39.777,9.61-6.029,16.776-15.656,29.465-7.367,3.436-.492,6.347-1.509,7.366-4.419-4.382,3-14.284-1.1-23.572-1.474-5.789.6-6.291,6.476-11.787,7.366-19.17-1.431-28.416-25.239-22.1-42.723,6.434-1.135,11.488,3.98,16.206,0-1.367-1-9.227.681-11.787-2.946-6.068-.667-5.527,5.276-10.312,5.893-6.569-14.418-13.023-32.2-10.313-51.563,9.072,2.222,10.307,12.282,10.313,23.572,1.751-4.628,5.34-.212,11.787-1.476-2.229-2.189-6.466-2.372-10.313-2.945,2.551-16.3-6.937-20.564-14.734-26.517a188.979,188.979,0,0,1,0-22.1c6.023,7.239,12.27,14.248,25.047,14.732,10.114,5.6,7.953,23.477,10.313,36.83,6.032,8.208,15.74,12.743,20.625,22.1-1.215,3.7,2.864,12.685-2.947,11.784,13.486-.682,1.009-23.479-4.419-27.99,3.653-1.284,11.423-2.877,14.732,0-4.357-8.666-11.981-.791-20.625-1.474-2.523-1.405-2.969-4.888-5.893-5.892,3.492-22.152-6.586-30.734-13.259-42.725-4.411.969,1.409,3.151,0,5.894-23.345.111-29.6-34.12-17.679-51.562,4.618,9.623,3.818,24.665,17.679,25.044-.371,5.031-7.8,3-8.838,7.366,23.785-17.485,37.733-1.013,50.087,16.2,9.533,13.284,12.891,25.772,36.831,23.571,4.3,3.56,8.039,7.678,14.732,8.841A101.531,101.531,0,0,1,397.31,384.51c-34.62,6.5-32.953-41.383-60.4-48.617-9.333-2.461-24.107,4.071-30.938-5.893,1.094-6.865-3.714-12.288-4.418-19.152-1.706-16.606,5.515-31.274,13.256-41.249-6.058-14.653,5.37-23.916,13.26-29.465-1.217-2.995-5.159,3.539-7.366,4.419-4.367-4.464.613-12.083,2.947-14.732h11.784c3.594,7.035-1.6,11.375-2.945,19.152-2.152,12.453,4.985,25.646-4.42,30.938,3.808,1.783,7.977-8.675,11.787-11.787a6.941,6.941,0,0,1-4.422,1.474c-3.278-18.7,7.78-26.886,2.947-42.723,10.6-.2,8.249-13.358,19.152-13.26-6.613-5.072-10.425,5.24-13.259,8.84-9.309,1.825-9.76,3.9-19.153,4.42,3.857-13.824,12.074-23.286,22.1-30.938,3.648,1.421-2.03,5.656,0,10.313,3.376-2.519,3.483-8.3,4.419-13.26,6.369-10.724,19.465-10.384,38.3-14.732,16.263-3.753,23.677-10.635,33.885-1.473,4.894,10.283,4.9,23.9,2.946,33.884-3.567-1.835-7.156-3.648-11.784-4.419,1.173,4.719,8.457,3.327,10.313,7.365,2.682,12.77,4.025,28.86,1.472,42.723C421.349,263.449,408.347,260.132,400.253,257.812ZM381.1,194.465c4.057-3.8,5.36-10.355,11.784-11.787,2.162-4.149-5.784,2.935-8.838,2.947-1.278,4.616-3.651,8.136-7.365,10.313-2.623.814-6.118.756-7.369,2.946,7.85-.284,11.018-2.46,14.734,2.946-5.664,5.874-6.142,12.256-11.787,17.679-3.836,3.684-10.1,4.155-13.26,8.838-1.135,3.774-1.469,8.352-4.418,10.314,1.694-3.968-7.067-7.082-2.947-4.42,4.869,7.409,2.637,21.917,11.787,25.045-2.125-6.734-5-5.8-5.893-11.786-4.025-27.015,26.651-19.91,25.044-42.723,3.793-4.065,11.944-3.771,16.206-7.366-6.87-.978-9.466,2.321-14.732,2.946C383.283,198.178,381.87,196.645,381.1,194.465Zm11.784,39.776c-.17.385-2.743-.379-2.947,0-3.126,5.836-8.5,9.847-10.313,16.206-2.512,8.852,1.215,18.279-4.419,29.465-9.046-.668-16.858,7.651-14.73,13.259,1.287-10.851,14.1-11.722,25.043-8.839q5.886,5.9,7.366,16.206c.481,3.547-1.259,16.837,1.474,13.259.418-10.242.117-19.76-2.947-26.518a7.435,7.435,0,0,0,4.419-4.419c-6.257,5-10.222-.116-16.206-2.946,5.242-16.368-.032-43.25,17.682-47.144-4.594-6.05,2.961-15.281-1.476-20.625C394.106,220.316,395.932,227.309,392.888,234.241Zm-1.473,128.17c2.649-6.684,5.216-13.444,7.366-20.625,3.28-4.084,16.614,1.882,17.678-4.419-7.836.022-16.637-.923-20.625,2.946-3-8.781-10.511-13.058-17.678-17.678-9.152-9.274,2.5-19.141-1.472-29.465-1.717,9.827-6.066,20.666-4.422,29.465-11.454-3.77-18.8-11.648-32.409-13.26.962-13.825-28.073-23.907-25.047-5.892.832-3.589,1.263-7.578,5.893-7.366,12.824-1.528,13.279,9.31,17.679,16.206,4.747.654,7.982,2.822,13.259,2.946,11.656,12.409,38.067,10.06,44.2,27.992C395.725,350.068,388.8,357.767,391.415,362.411Zm-60.4,10.313c5.679,8.748,17.578,4.675,26.519,10.313,6.5,4.1,4.19,10.045,10.313,14.732,5.916,1.449,12.926,1.806,20.625,1.474,10.482,8.679,10.161,35.988,26.519,33.884-7.179-4.733-15.422-9.581-14.734-17.678.721-8.44,11.561-9.549,16.206-16.206-8.382.946-10.867,7.794-17.678,10.313.324-7.693-5.132-9.6-8.841-13.26-17.7,2.969-24.538-4.927-29.462-14.732-11.666-3.868-22.648-3.063-27.992-13.259-2.321-4.428.745-10.13-4.42-14.732C328.734,361.758,327.952,368.007,331.013,372.723Zm47.144,75.134c-3.41,15.4,3.429,26.695,0,44.2-1.079,4.388-14.8,3.776-13.259,5.893,3.631.194,7.1.222,8.84-1.474,1.95,10.747,18.408,16.149,27.99,10.313-12.618.834-22.573-1-25.043-10.312,5.692-7.884,2.034-16.592,5.891-25.044-2.065-4.882-6.248-19.768,0-23.571,7.488,4.508,25.686,7.3,32.412,0-18.791,8.5-33.329-8.783-54.509-4.419C364.6,446.686,373.672,444.975,378.156,447.857Z" transform="translate(-293.858 -172.233)" fill="rgba(157,159,162,0.5)" fill-rule="evenodd"/>
        <g id="Group_5" data-name="Group 5" transform="translate(0.062 9.142)">
          <path id="Path_35" data-name="Path 35" d="M368.581,192.491c4.061-3.8,5.364-10.355,11.788-11.787,2.159-4.149-5.785,2.935-8.841,2.947-1.275,4.616-3.649,8.136-7.365,10.313-2.623.814-6.118.756-7.366,2.946,7.85-.284,11.018-2.46,14.732,2.946-5.664,5.874-6.14,12.256-11.784,17.679-3.836,3.685-10.1,4.155-13.26,8.838-1.138,3.774-1.469,8.352-4.419,10.314,1.695-3.968-7.067-7.082-2.946-4.42,4.867,7.409,2.638,21.917,11.784,25.046-2.122-6.734-5-5.8-5.891-11.786-4.025-27.015,26.65-19.91,25.044-42.723,3.793-4.065,11.944-3.771,16.206-7.366-6.873-.978-9.466,2.321-14.734,2.946C370.763,196.2,369.348,194.671,368.581,192.491Z" transform="translate(-281.764 -179.401)" fill="#9d9fa2" fill-rule="evenodd"/>
          <path id="Path_36" data-name="Path 36" d="M378.3,225.624c-.17.385-2.743-.379-2.947,0-3.128,5.836-8.5,9.847-10.313,16.206-2.516,8.852,1.215,18.278-4.419,29.465-9.049-.668-16.858,7.651-14.733,13.259,1.287-10.851,14.1-11.722,25.046-8.84q5.881,5.9,7.366,16.206c.478,3.547-1.259,16.837,1.472,13.259.421-10.242.12-19.76-2.945-26.518a7.445,7.445,0,0,0,4.419-4.419c-6.259,5-10.222-.116-16.206-2.946,5.242-16.368-.034-43.25,17.678-47.144-4.59-6.05,2.965-15.281-1.472-20.625C379.514,211.7,381.339,218.693,378.3,225.624Z" transform="translate(-279.692 -172.758)" fill="#9d9fa2" fill-rule="evenodd"/>
          <path id="Path_37" data-name="Path 37" d="M386.655,336.3c2.646-6.684,5.216-13.444,7.366-20.625,3.28-4.084,16.612,1.882,17.678-4.419-7.836.022-16.637-.923-20.625,2.946-3.006-8.781-10.512-13.058-17.678-17.678-9.155-9.274,2.5-19.141-1.474-29.465-1.714,9.827-6.063,20.666-4.419,29.465-11.454-3.77-18.8-11.648-32.412-13.26.964-13.825-28.073-23.907-25.044-5.892.832-3.589,1.263-7.578,5.893-7.366,12.821-1.528,13.279,9.31,17.678,16.206,4.746.654,7.981,2.822,13.26,2.946,11.653,12.409,38.064,10.06,44.2,27.992C390.962,323.957,384.035,331.656,386.655,336.3Z" transform="translate(-289.524 -155.264)" fill="#9d9fa2" fill-rule="evenodd"/>
          <path id="Path_38" data-name="Path 38" d="M323.342,333.571c5.679,8.748,17.578,4.675,26.519,10.313,6.494,4.1,4.19,10.045,10.313,14.732,5.916,1.449,12.926,1.806,20.625,1.474,10.48,8.679,10.158,35.988,26.516,33.884-7.177-4.733-15.422-9.581-14.732-17.678.718-8.44,11.56-9.549,16.206-16.206-8.384.946-10.867,7.794-17.678,10.313.324-7.693-5.132-9.6-8.841-13.26-17.7,2.969-24.538-4.927-29.465-14.732-11.663-3.868-22.645-3.063-27.992-13.259-2.319-4.428.747-10.13-4.419-14.732C321.063,322.605,320.282,328.854,323.342,333.571Z" transform="translate(-286.613 -142.223)" fill="#9d9fa2" fill-rule="evenodd"/>
          <path id="Path_39" data-name="Path 39" d="M363.488,389.457c-3.41,15.4,3.429,26.695,0,44.2-1.079,4.388-14.8,3.776-13.26,5.893,3.632.194,7.1.222,8.838-1.474,1.953,10.747,18.409,16.149,27.993,10.313-12.618.834-22.573-1-25.045-10.313,5.693-7.884,2.037-16.592,5.893-25.044-2.065-4.882-6.248-19.768,0-23.571,7.488,4.508,25.686,7.3,32.41,0-18.792,8.5-33.329-8.783-54.509-4.419C349.927,388.286,359,386.575,363.488,389.457Z" transform="translate(-279.616 -122.975)" fill="#9d9fa2" fill-rule="evenodd"/>
          <path id="Path_40" data-name="Path 40" d="M318.623,218.409s6.061-1.1,8.178-1.75,8.546-2.377,10.663-2.653c0,0,3.5-5.34,4.142-6.537,0,0,4.7-6.78,9.005-2.377,0,0-4.218-.844-7.532,3.483,0,0-4.77,10.11-11.122,9.466a54.087,54.087,0,0,1,1.011,11.216s-.645,6.244-2.209,9.651c0,0-4.327,16.17-2.025,22.064a27.06,27.06,0,0,0,4.234-1.2,27.464,27.464,0,0,0-3.128,3.5c-.645,1.1-4.4,9.19-8.363,7.994a11.41,11.41,0,0,0,4.863-10.295s-1.565-16.188-.369-21.787a81.89,81.89,0,0,1,2.854-8.454s2.394-6.336-.277-9.189l-11.86-.185a14.04,14.04,0,0,0,1.657-2.117Z" transform="translate(-287.633 -172.736)" fill="#9d9fa2" fill-rule="evenodd"/>
          <path id="Path_41" data-name="Path 41" d="M300.111,282.848s5.629,12.311,4.456,16.418c0,0,2.112,6.921,12.432,6.217,0,0,19.7-3.755,29.553,6.448,0,0,7.036,6.567,17.942,26.385,0,0,10.791,20.528,30.962,15.718l13.018,10.555a26.645,26.645,0,0,1-13.722-8.208s-19.238,5.976-33.307-17.476c0,0-16.886-30.726-35.181-30.022,0,0-8.559-.114-18.762,7.743,0,0-.731-2.326,2.007-3.489,0,0,6.061-1.46,6.6-4.233,0,0-10.278.319-13.547-11.557,0,0-3.427-12.116-4.065-13.232a7.442,7.442,0,0,0,1.514-2.87Z" transform="translate(-292.643 -151.358)" fill="#9d9fa2" fill-rule="evenodd"/>
          <path id="Path_42" data-name="Path 42" d="M295.752,310.534s4.753,18.252,21.463,17.724c0,0,.988-1.516-1.057-3.628,0,0-1.955-1.45,1.388-2.31,0,0,3.34,5.783,4.989,8.421,0,0,7.762,10.888,8.488,18.847,0,0,.9,11.761-.264,15.457a7.97,7.97,0,0,1,2.836,2.507c.728,1.385,2.466,3.892,4.818,3.628a38.534,38.534,0,0,0,7.036-1.649s9.544-4.049,11.588,2.812c0,0-8.05-3.034-14.427.33,0,0,7.893,7.744,10.138,18.517,0,0,2.308,9.61-5.517,9.346a2.5,2.5,0,0,0,2.638-2.9s-1.3-7.234-.2-8.751a75.7,75.7,0,0,0-8.315-10.07s-10.639-8.951-12.289-12.184c0,0-.99-12.027-1.518-16.446s-1.756-16.975-8.685-20.208c0,0-14.227,1.031-24.957-14.625a24.576,24.576,0,0,0,.593-8.75Z" transform="translate(-293.907 -144.376)" fill="#9d9fa2" fill-rule="evenodd"/>
          <path id="Path_43" data-name="Path 43" d="M322.566,408.7a9.745,9.745,0,0,0,4.978.475c2.729-.475,4.976-.938,6.757-3.671,0,0,2.85-3.8,5.939-3.445a20.478,20.478,0,0,1,6.877.951s13.043,3.444,16.961.356a10.46,10.46,0,0,1-8.065,4.858s-8.883-5.441-14.109-2.245c0,0-5.928,3.076-9.017,5.927,0,0-4.274,2.969-6.175,3.208,0,0-3.552-5.358-8.185-8.078Z" transform="translate(-287.128 -118.098)" fill="#9d9fa2" fill-rule="evenodd"/>
          <path id="Path_44" data-name="Path 44" d="M295.886,331.7c.453.341,16.45,9.047,13.043,25.383,0,0,7.609.227,9.634,3.067a11.715,11.715,0,0,1-5.906-.113s-4.07-1.023-6,1.7c0,0,1.136-20.861-9.408-23.359a6.742,6.742,0,0,0-.682-4.2c-1.135-2.367-1.7-3.275-1.7-3.275Z" transform="translate(-293.644 -137.682)" fill="#9d9fa2" fill-rule="evenodd"/>
        </g>
      </g>
    </g>
  </g>
</svg>
