<svg xmlns="http://www.w3.org/2000/svg" width="46.384" height="57.53" viewBox="0 0 46.384 57.53">
  <defs>
    <style>
      .cls-1 {
        fill: rgba(35,31,32,0.2);
      }

      .cls-1, .cls-2 {
        fill-rule: evenodd;
      }

      .cls-2, .cls-3, .cls-4 {
        fill: none;
        stroke: #ed1c25;
        stroke-miterlimit: 3.864;
      }

      .cls-2, .cls-3 {
        stroke-width: 1.5px;
      }
    </style>
  </defs>
  <g id="Group_52" data-name="Group 52" transform="translate(1617.742 -2159.925)">
    <g id="Group_50" data-name="Group 50">
      <path id="Path_163" data-name="Path 163" class="cls-1" d="M-1593.731,2161.555c.658-.853,1.613-2.162,5.947-1.4,0,0,2.971.495,4.051,1.681a4.932,4.932,0,0,0,1.308,1.238c.531.212,3.821,2.229,4.635,4.705a6.916,6.916,0,0,1,1.521,2.583,4.116,4.116,0,0,0,1.026,2,6.156,6.156,0,0,1,1.133,5.131s3.874,7.287,1.45,13.284a8.284,8.284,0,0,1,1.079,6.58s-1.114,7-5.555,8.156a8.948,8.948,0,0,1-5.129,7.234,7.95,7.95,0,0,1-4.706,4.051s-1.344.283-2.264.549-3.733.212-3.891-1.946-.5-1.964-.814-2.6a4.838,4.838,0,0,1,0-2.795,7.7,7.7,0,0,0-.212-3.131,6.411,6.411,0,0,1,.265-4.439,11.052,11.052,0,0,0-.424-2.972,11.843,11.843,0,0,1,.211-6.085,10.56,10.56,0,0,1-.211-3.68c.318-1.4,1.131-4.157.972-5.289s-1.733-3.025.266-6.261a4.7,4.7,0,0,1-.425-3.839s-.849-2.848-.265-4.529a5.839,5.839,0,0,0,.371-3.891C-1593.71,2164.2-1594.391,2162.407-1593.731,2161.555Z"/>
      <path id="Path_164" data-name="Path 164" class="cls-1" d="M-1595.368,2161.555c-.659-.853-1.614-2.162-5.948-1.4,0,0-2.972.495-4.051,1.681a4.932,4.932,0,0,1-1.31,1.238c-.53.212-3.82,2.229-4.633,4.705a6.915,6.915,0,0,0-1.522,2.583,4.106,4.106,0,0,1-1.026,2,6.158,6.158,0,0,0-1.132,5.131s-3.874,7.287-1.45,13.284a8.282,8.282,0,0,0-1.08,6.58s1.115,7,5.554,8.156a8.948,8.948,0,0,0,5.131,7.234,7.946,7.946,0,0,0,4.7,4.051s1.344.283,2.264.549,3.732.212,3.891-1.946.5-1.964.814-2.6a4.848,4.848,0,0,0,0-2.795,7.68,7.68,0,0,1,.213-3.131,6.414,6.414,0,0,0-.266-4.439,11.028,11.028,0,0,1,.425-2.972,11.847,11.847,0,0,0-.212-6.085,10.576,10.576,0,0,0,.212-3.68c-.318-1.4-1.132-4.157-.974-5.289s1.735-3.025-.264-6.261a4.7,4.7,0,0,0,.424-3.839s.849-2.848.265-4.529a5.844,5.844,0,0,1-.371-3.891C-1595.391,2164.2-1594.71,2162.407-1595.368,2161.555Z"/>
    </g>
    <g id="Group_51" data-name="Group 51">
      <path id="Path_165" data-name="Path 165" class="cls-2" d="M-1594.535,2197.352a2.293,2.293,0,0,0-2.481-1.655h-10.875V2179.44h10.875s2.068.207,2.584,1.861c.517-1.654,2.588-1.861,2.588-1.861h10.876V2195.7h-10.876A2.665,2.665,0,0,0-1594.535,2197.352Z"/>
      <line id="Line_19" data-name="Line 19" class="cls-3" y2="15.367" transform="translate(-1594.46 2181.325)"/>
      <line id="Line_20" data-name="Line 20" class="cls-4" x2="7.314" transform="translate(-1591.565 2183.528)"/>
      <line id="Line_21" data-name="Line 21" class="cls-4" x2="7.314" transform="translate(-1591.565 2186.634)"/>
      <line id="Line_22" data-name="Line 22" class="cls-4" x2="7.314" transform="translate(-1591.565 2189.223)"/>
      <line id="Line_23" data-name="Line 23" class="cls-4" x2="7.314" transform="translate(-1591.565 2192.329)"/>
      <line id="Line_24" data-name="Line 24" class="cls-4" x2="7.314" transform="translate(-1605.026 2183.528)"/>
      <line id="Line_25" data-name="Line 25" class="cls-4" x2="7.314" transform="translate(-1605.026 2186.634)"/>
      <line id="Line_26" data-name="Line 26" class="cls-4" x2="7.314" transform="translate(-1605.026 2189.223)"/>
      <line id="Line_27" data-name="Line 27" class="cls-4" x2="7.314" transform="translate(-1605.026 2192.329)"/>
      <line id="Line_28" data-name="Line 28" class="cls-4" x2="10.856" transform="translate(-1608.133 2197.938)"/>
      <line id="Line_29" data-name="Line 29" class="cls-4" x2="10.856" transform="translate(-1592.601 2197.938)"/>
    </g>
  </g>
</svg>
