<svg xmlns="http://www.w3.org/2000/svg" width="41.552" height="41.552" viewBox="0 0 41.552 41.552">
  <path id="facebook-square-brands" d="M37.1,32H4.452A4.452,4.452,0,0,0,0,36.452V69.1a4.452,4.452,0,0,0,4.452,4.452h12.73V59.425H11.339V52.776h5.843V47.708c0-5.764,3.432-8.949,8.688-8.949a35.4,35.4,0,0,1,5.149.449v5.658h-2.9c-2.858,0-3.749,1.773-3.749,3.592v4.318h6.379l-1.02,6.649H24.37V73.552H37.1A4.452,4.452,0,0,0,41.552,69.1V36.452A4.452,4.452,0,0,0,37.1,32Z" transform="translate(0 -32)"/>
</svg>
