<svg id="RIGHT_BRAIN" data-name="RIGHT BRAIN" xmlns="http://www.w3.org/2000/svg" width="57.358" height="70.85" viewBox="0 0 57.358 70.85">
  <path id="Path_91" data-name="Path 91" d="M-88.131,271.686c.811-1.05,1.988-2.664,7.323-1.726,0,0,3.661.61,4.989,2.069a6.079,6.079,0,0,0,1.614,1.525c.654.261,4.706,2.746,5.706,5.8a8.534,8.534,0,0,1,1.875,3.181,5.056,5.056,0,0,0,1.264,2.462,7.588,7.588,0,0,1,1.393,6.316s4.769,8.976,1.784,16.361a10.2,10.2,0,0,1,1.33,8.1s-1.373,8.628-6.838,10.043c0,0-.394,6.318-6.319,8.908,0,0-1.217,3.249-5.793,4.989,0,0-1.658.35-2.788.678s-4.6.259-4.795-2.4-.608-2.418-1-3.2a5.938,5.938,0,0,1,0-3.444,9.47,9.47,0,0,0-.261-3.855,7.872,7.872,0,0,1,.328-5.467,13.574,13.574,0,0,0-.524-3.661,14.57,14.57,0,0,1,.26-7.494,12.954,12.954,0,0,1-.26-4.53c.391-1.721,1.393-5.121,1.2-6.514s-2.134-3.726.328-7.713a5.778,5.778,0,0,1-.524-4.726s-1.043-3.507-.328-5.577a7.19,7.19,0,0,0,.461-4.793C-88.1,274.949-88.942,272.734-88.131,271.686Z" transform="translate(117.936 -269.678)" fill="#ed1c25" fill-rule="evenodd"/>
  <path id="Path_92" data-name="Path 92" d="M-78.347,271.686c-.809-1.05-1.988-2.664-7.323-1.726,0,0-3.657.61-4.989,2.069a6.049,6.049,0,0,1-1.61,1.525c-.654.261-4.706,2.746-5.71,5.8a8.514,8.514,0,0,0-1.873,3.181,5.07,5.07,0,0,1-1.262,2.462,7.572,7.572,0,0,0-1.4,6.316s-4.769,8.976-1.784,16.361a10.2,10.2,0,0,0-1.33,8.1s1.373,8.628,6.844,10.043c0,0,.389,6.318,6.316,8.908,0,0,1.221,3.249,5.8,4.989,0,0,1.655.35,2.788.678s4.595.259,4.793-2.4.61-2.418,1-3.2a5.966,5.966,0,0,0,0-3.444,9.442,9.442,0,0,1,.263-3.855,7.91,7.91,0,0,0-.326-5.467,13.7,13.7,0,0,1,.519-3.661,14.551,14.551,0,0,0-.26-7.494,12.954,12.954,0,0,0,.26-4.53c-.389-1.721-1.393-5.121-1.2-6.514s2.134-3.726-.326-7.713a5.781,5.781,0,0,0,.522-4.726s1.045-3.507.328-5.577a7.178,7.178,0,0,1-.458-4.793C-78.372,274.949-77.532,272.734-78.347,271.686Z" transform="translate(105.899 -269.678)" fill="rgba(157,159,162,0.2)" fill-rule="evenodd"/>
  <g id="Group_22" data-name="Group 22" transform="translate(39.457 11.722)">
    <g id="Group_21" data-name="Group 21">
      <path id="Path_93" data-name="Path 93" d="M-81.942,276.543h1.393a4.6,4.6,0,0,1,1.631.2,1.665,1.665,0,0,1,.78.678,2.077,2.077,0,0,1,.3,1.12,1.921,1.921,0,0,1-.326,1.137,1.966,1.966,0,0,1-.982.692l1.629,3.065h-1.434l-1.552-2.92h-.133v2.92h-1.3Zm1.3,2.7h.417a1.632,1.632,0,0,0,.874-.166.613.613,0,0,0,.237-.546.673.673,0,0,0-.116-.4.655.655,0,0,0-.318-.239,2.4,2.4,0,0,0-.727-.073h-.367Z" transform="translate(83.576 -276.543)" fill="#fff" fill-rule="evenodd"/>
      <rect id="Rectangle_7" data-name="Rectangle 7" width="1.307" height="6.896" transform="translate(2.894 9.604)" fill="#fff"/>
      <path id="Path_94" data-name="Path 94" d="M-76.216,288.99l-.924.915a2.735,2.735,0,0,0-2.046-.927,2.341,2.341,0,0,0-1.7.674,2.216,2.216,0,0,0-.686,1.638,2.268,2.268,0,0,0,.714,1.692,2.421,2.421,0,0,0,1.757.692,2.158,2.158,0,0,0,1.147-.285,2,2,0,0,0,.751-.9H-79.2v-1.228h3.464l.01.29a3.356,3.356,0,0,1-.471,1.714,3.267,3.267,0,0,1-1.214,1.238,3.469,3.469,0,0,1-1.75.425,3.9,3.9,0,0,1-1.918-.466,3.407,3.407,0,0,1-1.33-1.328,3.694,3.694,0,0,1-.49-1.861,3.449,3.449,0,0,1,.9-2.38,3.575,3.575,0,0,1,2.8-1.206,4.257,4.257,0,0,1,1.684.333A3.9,3.9,0,0,1-76.216,288.99Z" transform="translate(82.899 -268.656)" fill="#fff" fill-rule="evenodd"/>
      <path id="Path_95" data-name="Path 95" d="M-82.278,293.418h1.334v2.6h2.3v-2.6h1.327v6.9H-78.64v-3.026h-2.3v3.026h-1.334Z" transform="translate(83.338 -264.605)" fill="#fff" fill-rule="evenodd"/>
      <path id="Path_96" data-name="Path 96" d="M-81.935,299.042h3.815v1.3H-79.38v5.6h-1.334v-5.6h-1.221Z" transform="translate(83.581 -260.625)" fill="#fff" fill-rule="evenodd"/>
    </g>
  </g>
</svg>
