<svg xmlns="http://www.w3.org/2000/svg" width="261.508" height="258.605" viewBox="0 0 261.508 258.605">
  <g id="ICON" transform="translate(28.998 -1114.727)" opacity="0.599">
    <g id="Group_32" data-name="Group 32" transform="translate(-28.998 1114.727)">
      <path id="Path_105" data-name="Path 105" d="M12.043,1244.029a89.713,89.713,0,1,1,89.712,89.714A89.711,89.711,0,0,1,12.043,1244.029ZM-29,1243.447v9.546l17.929,6.32s6.128,36.565,21.669,51.591l-8.063,16.832,14.706,15.027,16.83-8.578s18.445,17.93,51.914,21.669l5.483,17.477h22.184l4.838-17.154s32.18-4.707,51.591-21.346l17.156,8.576,14.7-14.7-8.255-16.187s20.509-28.955,21.024-51.914l17.8-6.965v-18.574l-17.93-6.318s-6.128-36.567-21.669-51.594l8.063-16.831-14.7-15.026-16.832,8.576s-18.443-17.929-51.914-21.67l-5.481-17.474H89.857l-4.838,17.153s-32.18,4.708-51.592,21.347l-17.153-8.576-14.7,14.7,8.255,16.185S-10.684,1204.5-11.2,1227.454l-17.8,6.965Z" transform="translate(28.998 -1114.727)" fill="rgba(157,159,162,0.2)" fill-rule="evenodd"/>
      <g id="Group_31" data-name="Group 31" transform="translate(13.071 11.794)">
        <path id="Path_106" data-name="Path 106" d="M-8.815,1235.948A102.089,102.089,0,1,1,93.274,1338.036,102.089,102.089,0,0,1-8.815,1235.948Z" transform="translate(24.228 -1118.652)" fill="none" stroke="#fff" stroke-miterlimit="3.864" stroke-width="0.85" stroke-dasharray="2 2" fill-rule="evenodd"/>
        <line id="Line_1" data-name="Line 1" y2="15.124" transform="translate(116.746)" fill="none" stroke="#fff" stroke-miterlimit="3.864" stroke-width="0.902"/>
        <line id="Line_2" data-name="Line 2" y2="15.124" transform="translate(116.784 219.891)" fill="none" stroke="#fff" stroke-miterlimit="3.864" stroke-width="0.902"/>
        <line id="Line_3" data-name="Line 3" x2="15.124" transform="translate(220.241 117.007)" fill="none" stroke="#fff" stroke-miterlimit="3.864" stroke-width="0.902"/>
        <line id="Line_4" data-name="Line 4" x2="15.124" transform="translate(0 117.109)" fill="none" stroke="#fff" stroke-miterlimit="3.864" stroke-width="0.902"/>
        <line id="Line_5" data-name="Line 5" x2="10.695" y2="10.695" transform="translate(33.944 33.907)" fill="none" stroke="#fff" stroke-miterlimit="3.864" stroke-width="0.902"/>
        <line id="Line_6" data-name="Line 6" x1="10.695" y2="10.695" transform="translate(189.32 33.907)" fill="none" stroke="#fff" stroke-miterlimit="3.864" stroke-width="0.902"/>
        <g id="Group_30" data-name="Group 30" transform="translate(33.444 188.794)">
          <line id="Line_7" data-name="Line 7" x1="10.695" y1="10.695" transform="translate(155.876 0.499)" fill="none" stroke="#ed1c25" stroke-miterlimit="3.864" stroke-width="0.902"/>
          <line id="Line_8" data-name="Line 8" y1="10.695" x2="10.694" transform="translate(0.5 0.499)" fill="none" stroke="#ed1c25" stroke-miterlimit="3.864" stroke-width="0.902"/>
          <path id="Path_107" data-name="Path 107" d="M170.032,1268.553l-10.693-10.7,1-1,10.695,10.7Zm-166.071-1,10.695-10.7,1,1-10.693,10.7Z" transform="translate(-3.961 -1256.859)" fill="none" stroke="#fff" stroke-miterlimit="3.864" stroke-width="0.902"/>
        </g>
      </g>
    </g>
    <g id="Group_33" data-name="Group 33" transform="translate(36.48 1183.212)">
      <path id="Path_108" data-name="Path 108" d="M47.536,1236.615A61.8,61.8,0,0,0,58.5,1226.337c4.605,7.84,12.987,13.036,23.3,8.909,4.838-1.935,11.481-9.425,17.134-15.078,7.79-7.789,18.076-13.97,15.761-27.411-1.13-6.563-7.426-12.6-13.02-13.707-10.487-2.077-17.242,5.291-24.671,11.65-3.943-2.453-9.8-2.99-16.447-2.741-2.784-.8,2.082-3.394,3.425-4.8,4.29-4.477,10.707-12.649,16.448-15.762,22.465-12.182,49.719,3.991,50.026,28.783.2,16.465-12.5,25.968-21.929,35.636-10.164,10.425-18.584,21.93-37.691,19.872A29.944,29.944,0,0,1,47.536,1236.615Z" transform="translate(-5.003 -1163.254)" fill="rgba(237,27,47,0.2)" fill-rule="evenodd"/>
      <path id="Path_109" data-name="Path 109" d="M101.05,1203.081c-3.418,4.121-8.047,7.028-10.966,11.649-4.254-7.044-11.625-12.82-22.614-9.592-4.942,1.449-10.568,7.826-17.133,14.391-7.972,7.972-17.187,13.636-17.132,24.669.051,10.089,8.1,19.59,21.93,17.133,7.241-1.286,8.749-7.1,15.075-11.65,5.137,1.716,10.388,3.319,17.819,2.742,3.123.344-1.256,2.562-2.056,3.425-7.442,8.04-17.075,20.047-31.525,21.245-23.622,1.957-46.706-23.336-32.893-49.341,2.633-4.958,9.875-10.561,15.763-16.447,8.988-8.988,14.113-17.6,24.669-21.245C78.673,1184.3,92.628,1192.348,101.05,1203.081Z" transform="translate(-17.398 -1153.018)" fill="rgba(35,31,32,0.2)" fill-rule="evenodd"/>
    </g>
  </g>
</svg>
