<svg xmlns="http://www.w3.org/2000/svg" width="46.383" height="57.53" viewBox="0 0 46.383 57.53">
  <defs>
    <style>
      .cls-1 {
        fill: rgba(35,31,32,0.2);
      }

      .cls-1, .cls-3 {
        fill-rule: evenodd;
      }

      .cls-2, .cls-3 {
        fill: none;
        stroke: #ed1b2f;
        stroke-miterlimit: 3.864;
      }
    </style>
  </defs>
  <g id="Group_43" data-name="Group 43" transform="translate(1505.014 -2018.7)">
    <g id="Group_41" data-name="Group 41">
      <path id="Path_125" data-name="Path 125" class="cls-1" d="M-1481,2020.33c.658-.852,1.613-2.162,5.947-1.4,0,0,2.972.5,4.051,1.68a4.924,4.924,0,0,0,1.309,1.239c.531.212,3.821,2.229,4.635,4.706a6.91,6.91,0,0,1,1.521,2.582,4.112,4.112,0,0,0,1.026,2,6.148,6.148,0,0,1,1.132,5.13s3.874,7.287,1.45,13.284a8.278,8.278,0,0,1,1.079,6.581s-1.114,7-5.554,8.154a8.952,8.952,0,0,1-5.129,7.235,7.95,7.95,0,0,1-4.706,4.05s-1.344.284-2.264.549-3.732.213-3.892-1.945-.5-1.964-.814-2.6a4.856,4.856,0,0,1,0-2.795,7.674,7.674,0,0,0-.212-3.13,6.419,6.419,0,0,1,.266-4.441,11.038,11.038,0,0,0-.425-2.972,11.847,11.847,0,0,1,.213-6.085,10.563,10.563,0,0,1-.213-3.679c.318-1.4,1.133-4.156.973-5.289s-1.734-3.025.265-6.262a4.7,4.7,0,0,1-.425-3.839s-.848-2.848-.264-4.528a5.84,5.84,0,0,0,.371-3.892C-1480.981,2022.979-1481.662,2021.183-1481,2020.33Z"/>
      <path id="Path_126" data-name="Path 126" class="cls-1" d="M-1482.64,2020.33c-.659-.852-1.614-2.162-5.948-1.4,0,0-2.972.5-4.051,1.68a4.924,4.924,0,0,1-1.309,1.239c-.531.212-3.821,2.229-4.634,4.706a6.923,6.923,0,0,0-1.522,2.582,4.1,4.1,0,0,1-1.026,2,6.155,6.155,0,0,0-1.132,5.13s-3.874,7.287-1.45,13.284a8.283,8.283,0,0,0-1.079,6.581s1.114,7,5.554,8.154a8.949,8.949,0,0,0,5.131,7.235,7.946,7.946,0,0,0,4.7,4.05s1.343.284,2.263.549,3.733.213,3.893-1.945.495-1.964.813-2.6a4.84,4.84,0,0,0,0-2.795,7.691,7.691,0,0,1,.212-3.13,6.418,6.418,0,0,0-.265-4.441,11.041,11.041,0,0,1,.425-2.972,11.847,11.847,0,0,0-.213-6.085,10.561,10.561,0,0,0,.213-3.679c-.319-1.4-1.132-4.156-.973-5.289s1.733-3.025-.266-6.262a4.7,4.7,0,0,0,.425-3.839s.849-2.848.266-4.528a5.835,5.835,0,0,1-.372-3.892C-1482.662,2022.979-1481.981,2021.183-1482.64,2020.33Z"/>
    </g>
    <g id="Group_42" data-name="Group 42">
      <rect id="Rectangle_12" data-name="Rectangle 12" class="cls-2" width="16.329" height="16.953" transform="translate(-1489.975 2039.097)"/>
      <path id="Path_127" data-name="Path 127" class="cls-3" d="M-1488.417,2054.021h13.211v-13.1h-7.179l-6.028,5.977Z"/>
      <path id="Path_128" data-name="Path 128" class="cls-3" d="M-1484.495,2042.953h5.606s1.831-.124,1.831,1.457a1.505,1.505,0,0,1-1.707,1.519h-5.109a1.509,1.509,0,0,0-1.595,1.412,1.287,1.287,0,0,0,1.341,1.456h3.651a1.453,1.453,0,0,1,1.387,1.549s.046,1.317-1.6,1.5h-7.766"/>
      <path id="Path_129" data-name="Path 129" class="cls-3" d="M-1475.538,2039.03v-3.478h1.723"/>
      <path id="Path_130" data-name="Path 130" class="cls-3" d="M-1477.454,2039.063V2033.5h-1.723"/>
      <path id="Path_131" data-name="Path 131" class="cls-3" d="M-1487.6,2039.03v-3.478h-1.723"/>
      <path id="Path_132" data-name="Path 132" class="cls-3" d="M-1485.679,2039.063V2033.5h1.723"/>
      <line id="Line_15" data-name="Line 15" class="cls-2" y1="2.471" transform="translate(-1481.665 2036.495)"/>
      <path id="Path_133" data-name="Path 133" class="cls-3" d="M-1482.722,2035.569a1.056,1.056,0,0,1,1.057-1.056,1.056,1.056,0,0,1,1.057,1.056,1.057,1.057,0,0,1-1.057,1.056A1.057,1.057,0,0,1-1482.722,2035.569Z"/>
      <path id="Path_134" data-name="Path 134" class="cls-3" d="M-1490,2041.3h-3.479v-1.723"/>
      <path id="Path_135" data-name="Path 135" class="cls-3" d="M-1489.963,2043.217h-5.559v1.723"/>
      <path id="Path_136" data-name="Path 136" class="cls-3" d="M-1490,2053.358h-3.479v1.723"/>
      <path id="Path_137" data-name="Path 137" class="cls-3" d="M-1489.963,2051.441h-5.559v-1.723"/>
      <line id="Line_16" data-name="Line 16" class="cls-2" x1="2.471" transform="translate(-1492.531 2047.428)"/>
      <path id="Path_138" data-name="Path 138" class="cls-3" d="M-1494.514,2047.428a1.057,1.057,0,0,1,1.057-1.057,1.057,1.057,0,0,1,1.056,1.057,1.055,1.055,0,0,1-1.056,1.055A1.056,1.056,0,0,1-1494.514,2047.428Z"/>
      <path id="Path_139" data-name="Path 139" class="cls-3" d="M-1473.647,2041.3h3.478v-1.723"/>
      <path id="Path_140" data-name="Path 140" class="cls-3" d="M-1473.681,2043.217h5.559v1.723"/>
      <path id="Path_141" data-name="Path 141" class="cls-3" d="M-1473.647,2053.358h3.478v1.723"/>
      <path id="Path_142" data-name="Path 142" class="cls-3" d="M-1473.681,2051.441h5.559v-1.723"/>
      <line id="Line_17" data-name="Line 17" class="cls-2" x2="2.471" transform="translate(-1473.583 2047.428)"/>
      <path id="Path_143" data-name="Path 143" class="cls-3" d="M-1471.243,2047.428a1.057,1.057,0,0,1,1.057-1.057,1.057,1.057,0,0,1,1.056,1.057,1.055,1.055,0,0,1-1.056,1.055A1.056,1.056,0,0,1-1471.243,2047.428Z"/>
      <path id="Path_144" data-name="Path 144" class="cls-3" d="M-1475.538,2055.9v3.478h1.723"/>
      <path id="Path_145" data-name="Path 145" class="cls-3" d="M-1477.454,2055.866v5.559h-1.723"/>
      <path id="Path_146" data-name="Path 146" class="cls-3" d="M-1487.6,2055.9v3.478h-1.723"/>
      <path id="Path_147" data-name="Path 147" class="cls-3" d="M-1485.679,2055.866v5.559h1.723"/>
      <line id="Line_18" data-name="Line 18" class="cls-2" y2="2.471" transform="translate(-1481.665 2055.964)"/>
      <path id="Path_148" data-name="Path 148" class="cls-3" d="M-1482.722,2059.36a1.056,1.056,0,0,1,1.057-1.055,1.056,1.056,0,0,1,1.057,1.055,1.057,1.057,0,0,1-1.057,1.057A1.057,1.057,0,0,1-1482.722,2059.36Z"/>
    </g>
  </g>
</svg>
