<svg id="Component_5_1" data-name="Component 5 – 1" xmlns="http://www.w3.org/2000/svg" width="46.384" height="57.53" viewBox="0 0 46.384 57.53">
  <defs>
    <style>
      .cls-1 {
        fill: rgba(35,31,32,0.2);
      }

      .cls-1, .cls-2, .cls-3, .cls-4 {
        fill-rule: evenodd;
      }

      .cls-2, .cls-3, .cls-4, .cls-5 {
        fill: none;
        stroke: #ed1c25;
        stroke-miterlimit: 3.864;
      }

      .cls-2, .cls-4, .cls-5 {
        stroke-linecap: round;
      }

      .cls-2, .cls-3 {
        stroke-width: 1.5px;
      }
    </style>
  </defs>
  <g id="Group_38" data-name="Group 38" transform="translate(1692.783 -2018.7)">
    <path id="Path_117" data-name="Path 117" class="cls-1" d="M-1668.773,2020.33c.659-.852,1.614-2.162,5.948-1.4,0,0,2.971.5,4.051,1.68a4.932,4.932,0,0,0,1.308,1.239c.531.212,3.821,2.229,4.635,4.706a6.91,6.91,0,0,1,1.521,2.582,4.112,4.112,0,0,0,1.026,2,6.157,6.157,0,0,1,1.133,5.13s3.873,7.287,1.45,13.284a8.283,8.283,0,0,1,1.079,6.581s-1.114,7-5.555,8.154a8.949,8.949,0,0,1-5.13,7.235,7.946,7.946,0,0,1-4.7,4.05s-1.344.284-2.264.549-3.733.213-3.892-1.945-.495-1.964-.813-2.6a4.829,4.829,0,0,1,0-2.795,7.691,7.691,0,0,0-.212-3.13,6.42,6.42,0,0,1,.264-4.441,11.062,11.062,0,0,0-.424-2.972,11.856,11.856,0,0,1,.212-6.085,10.572,10.572,0,0,1-.212-3.679c.319-1.4,1.132-4.156.973-5.289s-1.733-3.025.266-6.262a4.7,4.7,0,0,1-.425-3.839s-.849-2.848-.266-4.528a5.835,5.835,0,0,0,.372-3.892C-1668.751,2022.979-1669.432,2021.183-1668.773,2020.33Z"/>
    <path id="Path_118" data-name="Path 118" class="cls-1" d="M-1670.41,2020.33c-.658-.852-1.613-2.162-5.947-1.4,0,0-2.972.5-4.051,1.68a4.917,4.917,0,0,1-1.31,1.239c-.53.212-3.82,2.229-4.635,4.706a6.925,6.925,0,0,0-1.521,2.582,4.1,4.1,0,0,1-1.025,2,6.148,6.148,0,0,0-1.132,5.13s-3.874,7.287-1.45,13.284a8.281,8.281,0,0,0-1.08,6.581s1.115,7,5.554,8.154a8.949,8.949,0,0,0,5.13,7.235,7.95,7.95,0,0,0,4.706,4.05s1.344.284,2.264.549,3.732.213,3.891-1.945.495-1.964.814-2.6a4.848,4.848,0,0,0,0-2.795,7.675,7.675,0,0,1,.213-3.13,6.419,6.419,0,0,0-.266-4.441,11.038,11.038,0,0,1,.425-2.972,11.847,11.847,0,0,0-.213-6.085,10.563,10.563,0,0,0,.213-3.679c-.318-1.4-1.132-4.156-.974-5.289s1.735-3.025-.264-6.262a4.7,4.7,0,0,0,.424-3.839s.849-2.848.265-4.528a5.847,5.847,0,0,1-.371-3.892C-1670.432,2022.979-1669.751,2021.183-1670.41,2020.33Z"/>
  </g>
  <g id="Group_39" data-name="Group 39" transform="translate(1692.783 -2018.7)">
    <path id="Path_119" data-name="Path 119" class="cls-2" d="M-1667.429,2058.7s2.137-.3,2.239-2.183v-1.933a4.764,4.764,0,0,1,1.728-2.9,10.253,10.253,0,0,0,3.4-8.386s-.813-9.046-9.656-8.843h-.316c-8.842-.2-9.655,8.843-9.655,8.843a10.25,10.25,0,0,0,3.4,8.386,4.765,4.765,0,0,1,1.728,2.9v1.933c.1,1.879,2.238,2.183,2.238,2.183"/>
    <path id="Path_120" data-name="Path 120" class="cls-2" d="M-1674.44,2059.715a9.9,9.9,0,0,0,8.842,0"/>
    <path id="Path_121" data-name="Path 121" class="cls-2" d="M-1674.44,2061.716a9.9,9.9,0,0,0,8.842,0"/>
    <path id="Path_122" data-name="Path 122" class="cls-2" d="M-1674.44,2063.718a9.909,9.909,0,0,0,8.842,0"/>
    <path id="Path_123" data-name="Path 123" class="cls-3" d="M-1667.858,2065.017l-.163,1.261a4.508,4.508,0,0,1-3.464,0l-.326-1.261"/>
    <path id="Path_124" data-name="Path 124" class="cls-4" d="M-1668.935,2059.192v-7.17l4.336-7.754s-1.5-.667-2.085-.083-2.251,1.25-3,.25-1.918-1.751-3.086-.584a12.343,12.343,0,0,1-2.083.5l4.251,7.671v7"/>
    <line id="Line_10" data-name="Line 10" class="cls-5" y1="2.084" x2="3.419" transform="translate(-1658.846 2036.514)"/>
    <line id="Line_11" data-name="Line 11" class="cls-5" y1="3.084" x2="2.553" transform="translate(-1662.415 2031.345)"/>
    <line id="Line_12" data-name="Line 12" class="cls-5" x1="3.418" y1="2.084" transform="translate(-1683.756 2035.847)"/>
    <line id="Line_13" data-name="Line 13" class="cls-5" x1="2.554" y1="3.084" transform="translate(-1679.321 2030.677)"/>
    <line id="Line_14" data-name="Line 14" class="cls-5" y1="4.002" transform="translate(-1669.7 2028.301)"/>
  </g>
</svg>
