<svg xmlns="http://www.w3.org/2000/svg" width="46.385" height="57.53" viewBox="0 0 46.385 57.53">
  <defs>
    <style>
      .cls-1 {
        fill: rgba(35,31,32,0.2);
      }

      .cls-1, .cls-2, .cls-3, .cls-4 {
        fill-rule: evenodd;
      }

      .cls-2, .cls-4 {
        fill: none;
        stroke-width: 1.5px;
      }

      .cls-2, .cls-3, .cls-4 {
        stroke: #ed1c25;
        stroke-miterlimit: 3.864;
      }

      .cls-3 {
        fill: #ed1c25;
        stroke-width: 0.5px;
      }

      .cls-4 {
        stroke-linecap: round;
      }
    </style>
  </defs>
  <g id="Group_46" data-name="Group 46" transform="translate(1340.522 -2018.7)">
    <g id="Group_44" data-name="Group 44">
      <path id="Path_149" data-name="Path 149" class="cls-1" d="M-1316.512,2020.33c.659-.852,1.614-2.162,5.948-1.4,0,0,2.972.5,4.051,1.68a4.94,4.94,0,0,0,1.309,1.239c.531.212,3.821,2.229,4.635,4.706a6.912,6.912,0,0,1,1.521,2.582,4.111,4.111,0,0,0,1.025,2,6.151,6.151,0,0,1,1.133,5.13s3.873,7.287,1.45,13.284a8.281,8.281,0,0,1,1.08,6.581s-1.115,7-5.555,8.154a8.949,8.949,0,0,1-5.13,7.235,7.946,7.946,0,0,1-4.7,4.05s-1.345.284-2.265.549-3.732.213-3.891-1.945-.495-1.964-.814-2.6a4.848,4.848,0,0,1,0-2.795,7.674,7.674,0,0,0-.212-3.13,6.423,6.423,0,0,1,.265-4.441,11.065,11.065,0,0,0-.424-2.972,11.845,11.845,0,0,1,.212-6.085,10.57,10.57,0,0,1-.212-3.679c.318-1.4,1.132-4.156.973-5.289s-1.734-3.025.265-6.262a4.7,4.7,0,0,1-.424-3.839s-.849-2.848-.266-4.528a5.841,5.841,0,0,0,.372-3.892C-1316.489,2022.979-1317.17,2021.183-1316.512,2020.33Z"/>
      <path id="Path_150" data-name="Path 150" class="cls-1" d="M-1318.148,2020.33c-.659-.852-1.614-2.162-5.948-1.4,0,0-2.971.5-4.05,1.68a4.933,4.933,0,0,1-1.31,1.239c-.53.212-3.82,2.229-4.635,4.706a6.925,6.925,0,0,0-1.521,2.582,4.1,4.1,0,0,1-1.026,2,6.155,6.155,0,0,0-1.132,5.13s-3.874,7.287-1.45,13.284a8.286,8.286,0,0,0-1.08,6.581s1.115,7,5.555,8.154a8.949,8.949,0,0,0,5.13,7.235,7.95,7.95,0,0,0,4.706,4.05s1.344.284,2.263.549,3.733.213,3.892-1.945.495-1.964.814-2.6a4.848,4.848,0,0,0,0-2.795,7.691,7.691,0,0,1,.212-3.13,6.416,6.416,0,0,0-.265-4.441,11.038,11.038,0,0,1,.425-2.972,11.858,11.858,0,0,0-.213-6.085,10.563,10.563,0,0,0,.213-3.679c-.319-1.4-1.132-4.156-.974-5.289s1.734-3.025-.265-6.262a4.7,4.7,0,0,0,.425-3.839s.849-2.848.265-4.528a5.841,5.841,0,0,1-.371-3.892C-1318.17,2022.979-1317.489,2021.183-1318.148,2020.33Z"/>
    </g>
    <g id="Group_45" data-name="Group 45">
      <path id="Path_151" data-name="Path 151" class="cls-2" d="M-1327.233,2056.686h-3.211a1.842,1.842,0,0,1-1.843-1.841v-10.058a1.843,1.843,0,0,1,1.843-1.843h13.561a1.843,1.843,0,0,1,1.843,1.843v10.058a1.842,1.842,0,0,1-1.843,1.841h-6.7V2061Z"/>
      <path id="Path_152" data-name="Path 152" class="cls-2" d="M-1322.341,2042.822v-7.05a1.842,1.842,0,0,1,1.842-1.843h16.283a1.843,1.843,0,0,1,1.843,1.843v12.309a1.842,1.842,0,0,1-1.843,1.842h-3.865l-3.143,4.129-.036-4.129h-3.763"/>
      <path id="Path_153" data-name="Path 153" class="cls-2" d="M-1327.462,2051.288h7.754a4.314,4.314,0,0,1-3.84,2.859s-3.467-.059-4.15-2.855Z"/>
      <path id="Path_154" data-name="Path 154" class="cls-3" d="M-1326.675,2047.6a.9.9,0,0,1,.9-.9.9.9,0,0,1,.9.9.9.9,0,0,1-.9.9A.9.9,0,0,1-1326.675,2047.6Z"/>
      <path id="Path_155" data-name="Path 155" class="cls-3" d="M-1321.761,2047.6a.9.9,0,0,1,.9-.9.9.9,0,0,1,.9.9.9.9,0,0,1-.9.9A.9.9,0,0,1-1321.761,2047.6Z"/>
      <path id="Path_156" data-name="Path 156" class="cls-3" d="M-1315.747,2039.612a.9.9,0,0,1,.9-.9.9.9,0,0,1,.9.9.9.9,0,0,1-.9.9A.9.9,0,0,1-1315.747,2039.612Z"/>
      <path id="Path_157" data-name="Path 157" class="cls-3" d="M-1310.833,2039.612a.9.9,0,0,1,.9-.9.9.9,0,0,1,.9.9.9.9,0,0,1-.9.9A.9.9,0,0,1-1310.833,2039.612Z"/>
      <path id="Path_158" data-name="Path 158" class="cls-4" d="M-1314.661,2045.576s3.852,1.387,6.318-1.806"/>
    </g>
  </g>
</svg>
