<svg id="LEFT_BRAIN" data-name="LEFT BRAIN" xmlns="http://www.w3.org/2000/svg" width="57.36" height="70.62" viewBox="0 0 57.36 70.62">
  <path id="Path_85" data-name="Path 85" d="M44.221,271.242c.771-1.048,1.89-2.655,6.966-1.721,0,0,3.484.608,4.746,2.063a5.944,5.944,0,0,0,1.535,1.52c.622.26,4.476,2.737,5.428,5.776a8.562,8.562,0,0,1,1.783,3.171,5.136,5.136,0,0,0,1.2,2.454,7.819,7.819,0,0,1,1.325,6.3s4.536,8.947,1.7,16.308a10.551,10.551,0,0,1,1.264,8.077s-1.307,8.6-6.506,10.011c0,0-.375,6.3-6.011,8.881a9.521,9.521,0,0,1-5.511,4.973s-1.577.347-2.652.672-4.374.262-4.557-2.388-.581-2.41-.955-3.191a6.2,6.2,0,0,1,0-3.433,9.907,9.907,0,0,0-.247-3.843,8.2,8.2,0,0,1,.31-5.45,14.149,14.149,0,0,0-.5-3.649,15.232,15.232,0,0,1,.248-7.468,13.56,13.56,0,0,1-.248-4.519c.372-1.714,1.327-5.1,1.138-6.491s-2.03-3.714.312-7.688a5.991,5.991,0,0,1-.5-4.711s-.992-3.5-.31-5.558a7.483,7.483,0,0,0,.437-4.777C44.247,274.494,43.452,272.288,44.221,271.242Z" transform="translate(-13.07 -269.24)" fill="rgba(237,28,37,0.2)" fill-rule="evenodd"/>
  <path id="Path_86" data-name="Path 86" d="M52.715,271.242c-.771-1.048-1.889-2.655-6.966-1.721,0,0-3.48.608-4.746,2.063a5.9,5.9,0,0,1-1.533,1.52c-.622.26-4.476,2.737-5.431,5.776a8.566,8.566,0,0,0-1.782,3.171,5.136,5.136,0,0,1-1.2,2.454,7.8,7.8,0,0,0-1.327,6.3s-4.539,8.947-1.7,16.308a10.547,10.547,0,0,0-1.265,8.077s1.307,8.6,6.509,10.011c0,0,.37,6.3,6.008,8.881A9.535,9.535,0,0,0,44.8,339.05s1.572.347,2.651.672,4.372.262,4.559-2.388.58-2.41.952-3.191a6.22,6.22,0,0,0,0-3.433,9.849,9.849,0,0,1,.25-3.843,8.226,8.226,0,0,0-.31-5.45,14.149,14.149,0,0,1,.5-3.649,15.24,15.24,0,0,0-.252-7.468,13.62,13.62,0,0,0,.252-4.519c-.375-1.714-1.33-5.1-1.143-6.491s2.03-3.714-.31-7.688a6,6,0,0,0,.5-4.711s1-3.5.31-5.558a7.471,7.471,0,0,1-.435-4.777C52.689,274.494,53.488,272.288,52.715,271.242Z" transform="translate(-26.507 -269.24)" fill="#727d84" fill-rule="evenodd"/>
  <g id="Group_19" data-name="Group 19" transform="translate(12.536 17.235)">
    <g id="Group_18" data-name="Group 18">
      <path id="Path_87" data-name="Path 87" d="M34.118,278.917h1.243v5.371H37.2v1.188h-3.08Z" transform="translate(-33.585 -278.917)" fill="#fff" fill-rule="evenodd"/>
      <path id="Path_88" data-name="Path 88" d="M33.909,284.542H37.49v1.224H35.153v1.178H37.49v1.206H35.153v1.726H37.49V291.1H33.909Z" transform="translate(-33.716 -275.406)" fill="#fff" fill-rule="evenodd"/>
      <path id="Path_89" data-name="Path 89" d="M34.022,290.167h3.251v1.205H35.266v1.2h2.008v1.206H35.266v2.951H34.022Z" transform="translate(-33.645 -271.896)" fill="#fff" fill-rule="evenodd"/>
      <path id="Path_90" data-name="Path 90" d="M33.79,295.792h3.629v1.233h-1.2v5.326H34.951v-5.326H33.79Z" transform="translate(-33.79 -268.385)" fill="#fff" fill-rule="evenodd"/>
    </g>
  </g>
</svg>
