<svg xmlns="http://www.w3.org/2000/svg" width="46.383" height="57.53" viewBox="0 0 46.383 57.53">
  <defs>
    <style>
      .cls-1 {
        fill: rgba(35,31,32,0.2);
      }

      .cls-1, .cls-2 {
        fill-rule: evenodd;
      }

      .cls-2 {
        fill: none;
        stroke: #ed1c25;
        stroke-miterlimit: 3.864;
      }
    </style>
  </defs>
  <g id="Group_55" data-name="Group 55" transform="translate(1376.083 -2159.925)">
    <g id="Group_53" data-name="Group 53">
      <path id="Path_166" data-name="Path 166" class="cls-1" d="M-1352.073,2161.555c.658-.853,1.613-2.162,5.947-1.4,0,0,2.973.495,4.051,1.681a4.939,4.939,0,0,0,1.309,1.238c.531.212,3.822,2.229,4.635,4.705a6.917,6.917,0,0,1,1.521,2.583,4.116,4.116,0,0,0,1.026,2,6.157,6.157,0,0,1,1.132,5.131s3.874,7.287,1.451,13.284a8.289,8.289,0,0,1,1.079,6.58s-1.114,7-5.555,8.156a8.948,8.948,0,0,1-5.129,7.234,7.95,7.95,0,0,1-4.705,4.051s-1.345.283-2.265.549-3.733.212-3.892-1.946-.495-1.964-.813-2.6a4.832,4.832,0,0,1,0-2.795,7.712,7.712,0,0,0-.212-3.131,6.41,6.41,0,0,1,.264-4.439,11.055,11.055,0,0,0-.424-2.972,11.846,11.846,0,0,1,.213-6.085,10.538,10.538,0,0,1-.213-3.68c.318-1.4,1.132-4.157.973-5.289s-1.733-3.025.265-6.261a4.7,4.7,0,0,1-.424-3.839s-.85-2.848-.265-4.529a5.844,5.844,0,0,0,.371-3.891C-1352.052,2164.2-1352.731,2162.407-1352.073,2161.555Z"/>
      <path id="Path_167" data-name="Path 167" class="cls-1" d="M-1353.71,2161.555c-.658-.853-1.613-2.162-5.947-1.4,0,0-2.973.495-4.051,1.681a4.933,4.933,0,0,1-1.31,1.238c-.53.212-3.821,2.229-4.634,4.705a6.9,6.9,0,0,0-1.521,2.583,4.116,4.116,0,0,1-1.026,2,6.154,6.154,0,0,0-1.132,5.131s-3.874,7.287-1.451,13.284a8.281,8.281,0,0,0-1.078,6.58s1.113,7,5.553,8.156a8.951,8.951,0,0,0,5.13,7.234,7.95,7.95,0,0,0,4.7,4.051s1.345.283,2.265.549,3.732.212,3.892-1.946.495-1.964.813-2.6a4.84,4.84,0,0,0,0-2.795,7.714,7.714,0,0,1,.212-3.131,6.411,6.411,0,0,0-.265-4.439,11.028,11.028,0,0,1,.425-2.972,11.858,11.858,0,0,0-.213-6.085,10.542,10.542,0,0,0,.213-3.68c-.318-1.4-1.133-4.157-.974-5.289s1.734-3.025-.264-6.261a4.7,4.7,0,0,0,.424-3.839s.849-2.848.265-4.529a5.838,5.838,0,0,1-.371-3.891C-1353.731,2164.2-1353.052,2162.407-1353.71,2161.555Z"/>
    </g>
    <g id="Group_54" data-name="Group 54">
      <path id="Path_168" data-name="Path 168" class="cls-2" d="M-1343.046,2179.255s5.6,5.826,2.264,10.809c0,0-2.465,2.756-8.125,3.531,0,0-3.234-.041-3.5,3.768a5.716,5.716,0,0,1-6.757,4.841s-8.653-.7-6.578-14.7c0,0,3.363-16.5,20.557-9.43"/>
      <path id="Path_169" data-name="Path 169" class="cls-2" d="M-1352.862,2191.254s2.913-2.374,3.08-3.232c0,0,6.17-6.706,8.243-11.751,0,0,.391-.9.247-1.163-.286-.078-1.121.505-1.121.505-4.342,3.251-9.291,10.924-9.291,10.924-.783.37-2.359,3.8-2.359,3.8"/>
      <path id="Path_170" data-name="Path 170" class="cls-2" d="M-1354.1,2190.37s.083.859,1.3.874"/>
      <path id="Path_171" data-name="Path 171" class="cls-2" d="M-1352.989,2188.453s.117,1.208,1.832,1.228"/>
      <path id="Path_172" data-name="Path 172" class="cls-2" d="M-1351.773,2186.81s.118,1.208,1.833,1.227"/>
      <path id="Path_173" data-name="Path 173" class="cls-2" d="M-1353.13,2191.405a4.554,4.554,0,0,1-.363,2.465,2.734,2.734,0,0,1-2.123.975s-1.246.047-1.481.446a1.952,1.952,0,0,1,0-1.338,3.478,3.478,0,0,0,.065-.861,2.982,2.982,0,0,1,3.086-2.464"/>
      <path id="Path_174" data-name="Path 174" class="cls-2" d="M-1343.935,2187.835c.789-.263.428-.263,1.02-.065s1.282-.527,1.053-1.447a1.93,1.93,0,0,0-2.6-1.414,1.869,1.869,0,0,0-.69,2.565A1.059,1.059,0,0,0-1343.935,2187.835Z"/>
      <path id="Path_175" data-name="Path 175" class="cls-2" d="M-1361.992,2195.473c.3.774.285.413.119,1.014s.593,1.253,1.5.975a1.928,1.928,0,0,0,1.275-2.668,1.868,1.868,0,0,0-2.6-.555A1.063,1.063,0,0,0-1361.992,2195.473Z"/>
      <path id="Path_176" data-name="Path 176" class="cls-2" d="M-1350.566,2179.3c-.548-.473-1.079-.2-1.41-.6-.552-.675-1.776-.6-2.705.947a2.028,2.028,0,0,0,1.2,2.555,1.955,1.955,0,0,0,2.2-.062c.894-.76.425-.709,1.094-1.283C-1350.19,2180.853-1349.5,2180.224-1350.566,2179.3Z"/>
      <path id="Path_177" data-name="Path 177" class="cls-2" d="M-1360.093,2185.3c.651.315,1.092-.089,1.518.219.709.509,1.872.126,2.367-1.615a2.027,2.027,0,0,0-1.82-2.158,1.956,1.956,0,0,0-2.106.629c-.668.966-.226.795-.724,1.524C-1360.858,2183.9-1361.365,2184.682-1360.093,2185.3Z"/>
      <path id="Path_178" data-name="Path 178" class="cls-2" d="M-1360.261,2187.644c-.648-.079-.905.4-1.358.259-.754-.227-1.634.442-1.545,2.071a1.828,1.828,0,0,0,2.185,1.3,1.763,1.763,0,0,0,1.612-1.153c.285-1.021-.04-.746.171-1.512C-1359.2,2188.614-1358.995,2187.794-1360.261,2187.644Z"/>
    </g>
  </g>
</svg>
