<svg xmlns="http://www.w3.org/2000/svg" width="41.552" height="41.552" viewBox="0 0 41.552 41.552">
  <path id="instagram-square-brands" d="M20.776,47.829a4.947,4.947,0,1,0,4.949,4.948,4.947,4.947,0,0,0-4.949-4.948Zm11.567-3.8a5.008,5.008,0,0,0-2.821-2.821c-1.948-.769-6.585-.6-8.746-.6s-6.794-.179-8.747.6a5.008,5.008,0,0,0-2.821,2.821c-.768,1.948-.6,6.59-.6,8.749s-.172,6.8.6,8.75a5.008,5.008,0,0,0,2.821,2.821c1.948.769,6.585.6,8.747.6s6.793.179,8.746-.6a5.009,5.009,0,0,0,2.821-2.821c.774-1.948.6-6.59.6-8.749s.178-6.795-.6-8.749ZM20.776,60.381a7.6,7.6,0,1,1,5.381-2.225A7.605,7.605,0,0,1,20.776,60.381Zm7.919-13.755a1.765,1.765,0,1,1,1.258-.518,1.775,1.775,0,0,1-1.258.518ZM37.1,32H4.452A4.452,4.452,0,0,0,0,36.452V69.1a4.452,4.452,0,0,0,4.452,4.452H37.1A4.452,4.452,0,0,0,41.552,69.1V36.452A4.452,4.452,0,0,0,37.1,32ZM35.512,58.9a8.825,8.825,0,0,1-2.4,6.214,8.829,8.829,0,0,1-6.214,2.4c-2.45.138-9.793.138-12.243,0a8.841,8.841,0,0,1-6.214-2.4,8.8,8.8,0,0,1-2.4-6.214c-.138-2.45-.138-9.8,0-12.243a8.8,8.8,0,0,1,2.4-6.214,8.845,8.845,0,0,1,6.214-2.391c2.45-.138,9.793-.138,12.243,0a8.83,8.83,0,0,1,6.214,2.4,8.83,8.83,0,0,1,2.4,6.219C35.65,49.107,35.65,56.445,35.512,58.9Z" transform="translate(0 -32)"/>
</svg>
