<svg xmlns="http://www.w3.org/2000/svg" width="46.384" height="57.53" viewBox="0 0 46.384 57.53">
  <defs>
    <style>
      .cls-1 {
        fill: rgba(35,31,32,0.2);
      }

      .cls-1, .cls-3, .cls-4, .cls-6 {
        fill-rule: evenodd;
      }

      .cls-2, .cls-3, .cls-5, .cls-6 {
        fill: none;
        stroke: #ed1c25;
        stroke-miterlimit: 3.864;
      }

      .cls-2, .cls-3 {
        stroke-width: 1.5px;
      }

      .cls-4 {
        fill: #ed1c25;
      }
    </style>
  </defs>
  <g id="Group_37" data-name="Group 37" transform="translate(1889.57 -2018.7)">
    <g id="Group_34" data-name="Group 34">
      <path id="Path_110" data-name="Path 110" class="cls-1" d="M-1865.56,2020.33c.66-.852,1.615-2.162,5.949-1.4,0,0,2.971.5,4.051,1.68a4.925,4.925,0,0,0,1.309,1.239c.53.212,3.82,2.229,4.634,4.706a6.912,6.912,0,0,1,1.521,2.582,4.111,4.111,0,0,0,1.027,2,6.153,6.153,0,0,1,1.131,5.13s3.874,7.287,1.451,13.284a8.283,8.283,0,0,1,1.079,6.581s-1.115,7-5.554,8.154a8.949,8.949,0,0,1-5.131,7.235,7.946,7.946,0,0,1-4.7,4.05s-1.344.284-2.263.549-3.733.213-3.892-1.945-.495-1.964-.814-2.6a4.848,4.848,0,0,1,0-2.795,7.691,7.691,0,0,0-.212-3.13,6.416,6.416,0,0,1,.265-4.441,11.038,11.038,0,0,0-.425-2.972,11.845,11.845,0,0,1,.212-6.085,10.572,10.572,0,0,1-.212-3.679c.319-1.4,1.132-4.156.974-5.289s-1.734-3.025.265-6.262a4.7,4.7,0,0,1-.425-3.839s-.849-2.848-.265-4.528a5.841,5.841,0,0,0,.371-3.892C-1865.537,2022.979-1866.218,2021.183-1865.56,2020.33Z"/>
      <path id="Path_111" data-name="Path 111" class="cls-1" d="M-1867.2,2020.33c-.658-.852-1.614-2.162-5.948-1.4,0,0-2.971.5-4.05,1.68a4.941,4.941,0,0,1-1.309,1.239c-.531.212-3.821,2.229-4.635,4.706a6.911,6.911,0,0,0-1.521,2.582,4.1,4.1,0,0,1-1.026,2,6.152,6.152,0,0,0-1.132,5.13s-3.874,7.287-1.451,13.284a8.283,8.283,0,0,0-1.079,6.581s1.115,7,5.555,8.154a8.95,8.95,0,0,0,5.129,7.235,7.95,7.95,0,0,0,4.706,4.05s1.345.284,2.265.549,3.732.213,3.89-1.945.5-1.964.815-2.6a4.855,4.855,0,0,0,0-2.795,7.674,7.674,0,0,1,.212-3.13,6.428,6.428,0,0,0-.265-4.441,11.062,11.062,0,0,1,.424-2.972,11.845,11.845,0,0,0-.212-6.085,10.572,10.572,0,0,0,.212-3.679c-.319-1.4-1.132-4.156-.973-5.289s1.734-3.025-.265-6.262a4.7,4.7,0,0,0,.424-3.839s.849-2.848.265-4.528a5.847,5.847,0,0,1-.371-3.892C-1867.218,2022.979-1866.537,2021.183-1867.2,2020.33Z"/>
    </g>
    <g id="Group_36" data-name="Group 36">
      <circle id="Ellipse_2" data-name="Ellipse 2" class="cls-2" cx="13.941" cy="13.941" r="13.941" transform="translate(-1883.859 2036.632)"/>
      <circle id="Ellipse_3" data-name="Ellipse 3" class="cls-2" cx="10.85" cy="10.85" r="10.85" transform="translate(-1884.094 2044.701) rotate(-22.5)"/>
      <path id="Path_112" data-name="Path 112" class="cls-3" d="M-1877.442,2050.573a7.524,7.524,0,0,1,7.524-7.524,7.524,7.524,0,0,1,7.525,7.524,7.526,7.526,0,0,1-7.525,7.526A7.526,7.526,0,0,1-1877.442,2050.573Z"/>
      <path id="Path_113" data-name="Path 113" class="cls-3" d="M-1874.115,2050.573a4.2,4.2,0,0,1,4.2-4.2,4.2,4.2,0,0,1,4.2,4.2,4.2,4.2,0,0,1-4.2,4.2A4.2,4.2,0,0,1-1874.115,2050.573Z"/>
      <g id="Group_35" data-name="Group 35">
        <path id="Path_114" data-name="Path 114" class="cls-4" d="M-1868.069,2048.892a2.5,2.5,0,0,1-.123,3.533,2.5,2.5,0,0,1-3.534-.123,2.5,2.5,0,0,1,.123-3.533,2.5,2.5,0,0,1,3.534.123"/>
        <line id="Line_9" data-name="Line 9" class="cls-5" x1="16.796" y2="15.729" transform="translate(-1868.374 2033.447)"/>
      </g>
      <path id="Path_115" data-name="Path 115" class="cls-6" d="M-1857.665,2039.035l-.267-4.888,4.177-3.732.978,4.443"/>
      <path id="Path_116" data-name="Path 116" class="cls-6" d="M-1857.768,2039.323l4.857.605,4.014-3.906-4.364-1.285"/>
    </g>
  </g>
</svg>
