<svg xmlns="http://www.w3.org/2000/svg" width="42.451" height="41.458" viewBox="0 0 42.451 41.458">
  <path id="youtube-square-brands" d="M17.7,47.741l9.021,5.006L17.7,57.754Zm24.751-11.3V69.016A4.5,4.5,0,0,1,37.9,73.458H4.548A4.5,4.5,0,0,1,0,69.016V36.442A4.5,4.5,0,0,1,4.548,32H37.9A4.5,4.5,0,0,1,42.451,36.442Zm-3.98,16.315a43.45,43.45,0,0,0-.72-8.162,4.275,4.275,0,0,0-3.051-3c-2.682-.713-13.474-.713-13.474-.713s-10.793,0-13.474.713a4.275,4.275,0,0,0-3.051,3,43.4,43.4,0,0,0-.72,8.162,43.45,43.45,0,0,0,.72,8.162,4.215,4.215,0,0,0,3.051,2.952c2.682.7,13.474.7,13.474.7s10.793,0,13.474-.713a4.215,4.215,0,0,0,3.051-2.952,43.316,43.316,0,0,0,.72-8.153Z" transform="translate(0 -32)"/>
</svg>
