<svg xmlns="http://www.w3.org/2000/svg" width="46.384" height="55.899" viewBox="0 0 46.384 55.899">
  <defs>
    <style>
      .cls-1 {
        fill: rgba(35,31,32,0.2);
      }

      .cls-1, .cls-2, .cls-5 {
        fill-rule: evenodd;
      }

      .cls-2, .cls-3, .cls-4, .cls-5 {
        fill: none;
        stroke: #ed1c25;
      }

      .cls-2, .cls-3, .cls-5 {
        stroke-miterlimit: 3.864;
      }

      .cls-2, .cls-3 {
        stroke-width: 1.5px;
      }

      .cls-4 {
        stroke-miterlimit: 3.864;
        stroke-width: 0.569px;
      }
    </style>
  </defs>
  <g id="Group_49" data-name="Group 49" transform="translate(1850.944 -2161.555)">
    <path id="Path_159" data-name="Path 159" class="cls-1" d="M-1816.935,2161.834a4.924,4.924,0,0,0,1.309,1.238c.53.212,3.82,2.229,4.635,4.705a6.931,6.931,0,0,1,1.521,2.583,4.1,4.1,0,0,0,1.026,2,6.159,6.159,0,0,1,1.131,5.131s3.874,7.287,1.451,13.284a8.286,8.286,0,0,1,1.08,6.58s-1.116,7-5.555,8.156a8.948,8.948,0,0,1-5.13,7.234,7.95,7.95,0,0,1-4.706,4.051s-1.344.283-2.263.549-3.733.212-3.892-1.946-.495-1.964-.814-2.6a4.848,4.848,0,0,1,0-2.795,7.7,7.7,0,0,0-.212-3.131,6.411,6.411,0,0,1,.265-4.439,11.055,11.055,0,0,0-.424-2.972,11.833,11.833,0,0,1,.212-6.085,10.574,10.574,0,0,1-.212-3.68c.319-1.4,1.132-4.157.973-5.289s-1.734-3.025.265-6.261a4.7,4.7,0,0,1-.424-3.839s-.85-2.848-.266-4.529a5.832,5.832,0,0,0,.371-3.891c-.318-1.681-1-3.478-.34-4.33"/>
    <path id="Path_160" data-name="Path 160" class="cls-1" d="M-1838.569,2161.834a4.94,4.94,0,0,1-1.309,1.238c-.531.212-3.82,2.229-4.635,4.705a6.917,6.917,0,0,0-1.521,2.583,4.1,4.1,0,0,1-1.026,2,6.161,6.161,0,0,0-1.132,5.131s-3.873,7.287-1.451,13.284a8.289,8.289,0,0,0-1.079,6.58s1.115,7,5.555,8.156a8.948,8.948,0,0,0,5.13,7.234,7.95,7.95,0,0,0,4.7,4.051s1.345.283,2.265.549,3.732.212,3.891-1.946.495-1.964.814-2.6a4.846,4.846,0,0,0,0-2.795,7.678,7.678,0,0,1,.212-3.131,6.417,6.417,0,0,0-.265-4.439,11.052,11.052,0,0,1,.424-2.972,11.845,11.845,0,0,0-.212-6.085,10.576,10.576,0,0,0,.212-3.68c-.319-1.4-1.132-4.157-.973-5.289s1.734-3.025-.265-6.261a4.7,4.7,0,0,0,.424-3.839s.849-2.848.266-4.529a5.838,5.838,0,0,1-.372-3.891c.318-1.681,1-3.478.341-4.33"/>
    <g id="Group_48" data-name="Group 48">
      <path id="Path_161" data-name="Path 161" class="cls-2" d="M-1813.019,2188.174v-7.68c0-1.564-1.92-1.813-1.92-1.813a.847.847,0,0,1-.8.923h-1.723a.984.984,0,0,1-.78-.539h-19.024a.984.984,0,0,1-.78.539h-1.723a.846.846,0,0,1-.8-.923s-1.92.249-1.92,1.813v16.39c0,1.564,1.92,1.813,1.92,1.813a.847.847,0,0,1,.8-.923h1.723a.986.986,0,0,1,.78.54h19.024a.986.986,0,0,1,.78-.54h1.723a.847.847,0,0,1,.8.923s1.92-.249,1.92-1.813Z"/>
      <rect id="Rectangle_13" data-name="Rectangle 13" class="cls-3" width="15.572" height="14.221" rx="1.138" transform="translate(-1835.375 2181.419)"/>
      <rect id="Rectangle_14" data-name="Rectangle 14" class="cls-4" width="3.342" height="2.348" transform="translate(-1840.423 2181.845)"/>
      <rect id="Rectangle_15" data-name="Rectangle 15" class="cls-4" width="3.342" height="2.347" transform="translate(-1840.423 2186.965)"/>
      <rect id="Rectangle_16" data-name="Rectangle 16" class="cls-4" width="3.342" height="2.347" transform="translate(-1840.423 2192.653)"/>
      <rect id="Rectangle_17" data-name="Rectangle 17" class="cls-4" width="3.342" height="2.348" transform="translate(-1818.238 2181.845)"/>
      <rect id="Rectangle_18" data-name="Rectangle 18" class="cls-4" width="3.342" height="2.347" transform="translate(-1818.238 2186.965)"/>
      <rect id="Rectangle_19" data-name="Rectangle 19" class="cls-4" width="3.342" height="2.347" transform="translate(-1818.238 2192.653)"/>
      <path id="Path_162" data-name="Path 162" class="cls-5" d="M-1830.184,2184.974v7.04l5.83-3.556Z"/>
    </g>
  </g>
</svg>
